
<svg width="80px" height="79px" viewBox="0 0 80 79" version="1.1" xmlns="http://www.w3.org/2000/svg" xmlns:xlink="http://www.w3.org/1999/xlink">
    <!-- Generator: Sketch 51.2 (57519) - http://www.bohemiancoding.com/sketch -->
    <desc>Created with Sketch.</desc>
    <defs></defs>
    <g id="Drives-Mockups" stroke="none" stroke-width="1" fill="none" fill-rule="evenodd">
        <g id="01-Home" transform="translate(-1232.000000, -1874.000000)" fill="#FF8300" fill-rule="nonzero">
            <g id="icons-dark" transform="translate(198.000000, 1671.000000)">
                <g id="crane" transform="translate(1034.000000, 203.000000)">
                    <path d="M72.7272727,8.18181818 C73.6986301,8.18181818 74.5454545,7.33499377 74.5454545,6.36363636 C74.5454545,5.39227895 73.6986301,4.54545455 72.7272727,4.54545455 C71.7559153,4.54545455 70.9090909,5.39227895 70.9090909,6.36363636 C70.9090909,7.33499377 71.7559153,8.18181818 72.7272727,8.18181818 Z M72.7272727,5.76587796 C73.1008717,5.76587796 73.3250311,6.01494396 73.3250311,6.36363636 C73.3250311,6.71232877 73.0759651,6.96139477 72.7272727,6.96139477 C72.3536737,6.96139477 72.1295143,6.71232877 72.1295143,6.36363636 C72.1295143,5.99003736 72.4782067,5.76587796 72.7272727,5.76587796 Z" id="Shape"></path>
                    <g id="Group" transform="translate(40.000000, 16.363636)">
                        <path d="M7.75438596,23.610101 C7.48325359,23.610101 7.3476874,23.610101 7.10366826,23.610101 C3.25358852,23.3474747 0.0813397129,20.0121212 0.0813397129,16.3090909 C0.0813397129,15.0222222 0.488038278,13.630303 1.13875598,12.4747475 C1.40988836,12.0808081 1.40988836,11.5818182 1.13875598,11.1878788 C0.488038278,10.0323232 0.0813397129,8.74545455 0.0813397129,7.35353535 C0.0813397129,3.51919192 3.11802233,0.315151515 7.10366826,0.0525252525 C9.2185008,-0.0787878788 11.4688995,0.682828283 13.0685805,2.1010101 C14.6682616,3.65050505 15.4545455,5.6989899 15.3189793,7.74747475 C15.1834131,8.9030303 14.9122807,10.0585859 14.261563,11.0828283 C13.9904306,11.4767677 13.9904306,11.8444444 14.261563,12.2383838 C14.9122807,13.2626263 15.3189793,14.4181818 15.3189793,15.5737374 C15.4545455,17.7535354 14.6682616,19.8020202 13.0685805,21.220202 C11.5773525,22.8484848 9.73365231,23.610101 7.75438596,23.610101 Z M7.75438596,1.44444444 C7.61881978,1.44444444 7.3476874,1.44444444 7.21212121,1.44444444 C4.03987241,1.70707071 1.51834131,4.38585859 1.51834131,7.45858586 C1.51834131,8.61414141 1.78947368,9.63838384 2.44019139,10.5313131 C2.98245614,11.2929293 2.98245614,12.3171717 2.44019139,13.1050505 C1.89792663,13.9979798 1.51834131,15.1535354 1.51834131,16.1777778 C1.51834131,19.2505051 4.03987241,21.9555556 7.21212121,22.1919192 C9.05582137,22.3232323 10.7910686,21.6666667 12.1196172,20.5373737 C13.4481659,19.2505051 14.0988836,17.5959596 13.9633174,15.7838384 C13.9633174,14.759596 13.5566188,13.8666667 13.0414673,12.9737374 C12.4992026,12.2121212 12.4992026,11.1878788 13.0414673,10.4 C13.5837321,9.50707071 13.8277512,8.61414141 13.9633174,7.58989899 C14.0988836,5.8040404 13.4210526,4.12323232 12.1196172,2.83636364 C10.9266348,2.07474747 9.35406699,1.44444444 7.75438596,1.44444444 Z" id="Shape"></path>
                        <g transform="translate(4.338118, 3.939394)" id="Shape">
                            <path d="M3.41626794,6.61818182 C1.57256778,6.61818182 0.108452951,5.2 0.108452951,3.41414141 C0.108452951,1.62828283 1.57256778,0.21010101 3.41626794,0.21010101 C5.2599681,0.21010101 6.72408293,1.62828283 6.72408293,3.41414141 C6.72408293,5.2 5.2599681,6.61818182 3.41626794,6.61818182 Z M3.41626794,0.84040404 C1.95215311,0.84040404 0.759170654,1.9959596 0.759170654,3.41414141 C0.759170654,4.83232323 1.95215311,5.98787879 3.41626794,5.98787879 C4.88038278,5.98787879 6.07336523,4.83232323 6.07336523,3.41414141 C6.07336523,1.9959596 4.88038278,0.84040404 3.41626794,0.84040404 Z"></path>
                            <path d="M5.39553429,3.41414141 L4.74481659,3.41414141 C4.74481659,2.65252525 4.09409888,1.9959596 3.28070175,1.9959596 C2.46730463,1.9959596 1.81658692,2.62626263 1.81658692,3.41414141 L1.16586922,3.41414141 C1.16586922,2.25858586 2.0877193,1.36565657 3.28070175,1.36565657 C4.47368421,1.36565657 5.39553429,2.25858586 5.39553429,3.41414141 Z"></path>
                        </g>
                        <g transform="translate(4.338118, 13.131313)" id="Shape">
                            <path d="M3.41626794,6.51313131 C1.57256778,6.51313131 0.108452951,5.09494949 0.108452951,3.30909091 C0.108452951,1.52323232 1.57256778,0.105050505 3.41626794,0.105050505 C5.2599681,0.105050505 6.72408293,1.52323232 6.72408293,3.30909091 C6.72408293,5.09494949 5.2599681,6.51313131 3.41626794,6.51313131 Z M3.41626794,0.735353535 C1.95215311,0.735353535 0.759170654,1.89090909 0.759170654,3.30909091 C0.759170654,4.72727273 1.95215311,5.88282828 3.41626794,5.88282828 C4.88038278,5.88282828 6.07336523,4.72727273 6.07336523,3.30909091 C6.07336523,1.89090909 4.88038278,0.735353535 3.41626794,0.735353535 Z"></path>
                            <path d="M3.41626794,5.35757576 C2.22328549,5.35757576 1.30143541,4.46464646 1.30143541,3.30909091 L1.95215311,3.30909091 C1.95215311,4.07070707 2.60287081,4.72727273 3.41626794,4.72727273 C4.22966507,4.72727273 4.88038278,4.0969697 4.88038278,3.30909091 L5.53110048,3.30909091 C5.39553429,4.46464646 4.47368421,5.35757576 3.41626794,5.35757576 Z"></path>
                        </g>
                        <path d="M7.75438596,11.6868687 C5.23285486,11.6868687 3.25358852,9.76969697 3.25358852,7.32727273 C3.25358852,4.88484848 5.23285486,2.96767677 7.75438596,2.96767677 C10.2759171,2.96767677 12.2551834,4.88484848 12.2551834,7.32727273 C12.2551834,9.76969697 10.2759171,11.6868687 7.75438596,11.6868687 Z M7.75438596,3.62424242 C5.63955343,3.62424242 3.90430622,5.27878788 3.90430622,7.35353535 C3.90430622,9.42828283 5.61244019,11.0828283 7.75438596,11.0828283 C9.89633174,11.0828283 11.6044657,9.42828283 11.6044657,7.35353535 C11.6044657,5.27878788 9.8692185,3.62424242 7.75438596,3.62424242 Z" id="Shape"></path>
                        <path d="M7.75438596,20.8 C5.23285486,20.8 3.25358852,18.8828283 3.25358852,16.440404 C3.25358852,13.9979798 5.23285486,12.0808081 7.75438596,12.0808081 C10.2759171,12.0808081 12.2551834,13.9979798 12.2551834,16.440404 C12.2551834,18.8828283 10.2759171,20.8 7.75438596,20.8 Z M7.75438596,12.7111111 C5.63955343,12.7111111 3.90430622,14.3656566 3.90430622,16.440404 C3.90430622,18.5151515 5.61244019,20.169697 7.75438596,20.169697 C9.89633174,20.169697 11.6044657,18.5151515 11.6044657,16.440404 C11.6044657,14.3656566 9.8692185,12.7111111 7.75438596,12.7111111 Z" id="Shape"></path>
                    </g>
                    <rect id="Rectangle-path" x="10.9090909" y="26.3636364" width="2.72727273" height="2.72727273"></rect>
                    <rect id="Rectangle-path" x="5.45454545" y="26.3636364" width="2.72727273" height="2.72727273"></rect>
                    <rect id="Rectangle-path" x="16.3636364" y="26.3636364" width="2.72727273" height="2.72727273"></rect>
                    <rect id="Rectangle-path" x="5.45454545" y="41.8181818" width="2.72727273" height="2.72727273"></rect>
                    <rect id="Rectangle-path" x="10.9090909" y="41.8181818" width="2.72727273" height="2.72727273"></rect>
                    <rect id="Rectangle-path" x="16.3636364" y="30.9090909" width="2.72727273" height="2.72727273"></rect>
                    <rect id="Rectangle-path" x="5.45454545" y="30.9090909" width="2.72727273" height="2.72727273"></rect>
                    <rect id="Rectangle-path" x="10.9090909" y="30.9090909" width="2.72727273" height="2.72727273"></rect>
                    <rect id="Rectangle-path" x="16.3636364" y="36.3636364" width="2.72727273" height="2.72727273"></rect>
                    <rect id="Rectangle-path" x="5.45454545" y="36.3636364" width="2.72727273" height="2.72727273"></rect>
                    <rect id="Rectangle-path" x="10.9090909" y="36.3636364" width="2.72727273" height="2.72727273"></rect>
                    <rect id="Rectangle-path" x="16.3636364" y="41.8181818" width="2.72727273" height="2.72727273"></rect>
                    <rect id="Rectangle-path" x="5.45454545" y="47.2727273" width="2.72727273" height="2.72727273"></rect>
                    <rect id="Rectangle-path" x="10.9090909" y="47.2727273" width="2.72727273" height="2.72727273"></rect>
                    <rect id="Rectangle-path" x="16.3636364" y="47.2727273" width="2.72727273" height="2.72727273"></rect>
                    <rect id="Rectangle-path" x="5.45454545" y="51.8181818" width="2.72727273" height="2.72727273"></rect>
                    <rect id="Rectangle-path" x="10.9090909" y="51.8181818" width="2.72727273" height="2.72727273"></rect>
                    <rect id="Rectangle-path" x="16.3636364" y="51.8181818" width="2.72727273" height="2.72727273"></rect>
                    <rect id="Rectangle-path" x="5.45454545" y="57.2727273" width="2.72727273" height="2.72727273"></rect>
                    <rect id="Rectangle-path" x="10.9090909" y="57.2727273" width="2.72727273" height="2.72727273"></rect>
                    <rect id="Rectangle-path" x="16.3636364" y="57.2727273" width="2.72727273" height="2.72727273"></rect>
                    <rect id="Rectangle-path" x="5.45454545" y="62.7272727" width="2.72727273" height="2.72727273"></rect>
                    <rect id="Rectangle-path" x="10.9090909" y="62.7272727" width="2.72727273" height="2.72727273"></rect>
                    <rect id="Rectangle-path" x="16.3636364" y="62.7272727" width="2.72727273" height="2.72727273"></rect>
                    <path d="M77.4023927,33.8725597 L77.4023927,11.7179304 C79.0722831,10.5434681 80,8.59492846 80,6.51292715 C80,2.85607871 77.163837,0 73.532488,0 C70.431263,0 67.8336557,2.21546293 67.197507,5.20500326 L47.66244,5.20500326 C46.8937603,5.20500326 46.3636364,5.73884975 46.3636364,6.51292715 L46.3636364,16.9229337 L48.9612436,16.9229337 L48.9612436,7.82085105 L67.197507,7.82085105 C67.462569,9.39569819 68.3637796,10.6769298 69.6625833,11.7179304 L69.6625833,33.8725597 C68.8939036,33.8725597 68.3637796,34.4064062 68.3637796,35.1804836 L68.3637796,76.8738943 C68.3637796,77.6479717 68.8939036,78.1818182 69.6625833,78.1818182 L77.4288989,78.1818182 C78.1975786,78.1818182 78.7277026,77.6479717 78.7277026,76.8738943 L78.7277026,35.1804836 C78.6746902,34.5131755 78.1710724,33.8725597 77.4023927,33.8725597 Z M76.1035891,75.5659704 L71.7035604,75.5659704 L76.1035891,71.7756603 L76.1035891,75.5659704 Z M70.9348807,72.816661 L70.9348807,65.3961948 L75.3349094,69.1865049 L70.9348807,72.816661 Z M76.1035891,66.3037338 L71.7035604,62.5134238 L76.1035891,58.7231137 L76.1035891,66.3037338 Z M70.9348807,59.7908067 L70.9348807,51.3293398 L75.4409342,55.8937273 L70.9348807,59.7908067 Z M76.1035891,52.8774946 L71.7035604,48.4465688 L76.1035891,45.4570285 L76.1035891,52.8774946 Z M70.9348807,45.7239517 L70.9348807,38.3034855 L75.3349094,42.7344114 L70.9348807,45.7239517 Z M76.1035891,39.8516403 L72.7373021,36.4617151 L76.1035891,36.4617151 L76.1035891,39.8516403 Z M72.2071782,33.8725597 L72.2071782,12.8923927 C73.1083889,13.0258543 73.8770686,13.0258543 74.8047854,12.8923927 L74.8047854,33.8725597 L72.2071782,33.8725597 Z M75.5734651,9.90285235 C75.5734651,9.90285235 75.4409342,9.90285235 75.5734651,9.90285235 C75.3084032,10.036314 74.9373164,10.1697756 74.6722545,10.3032372 C74.0361057,10.4366988 73.3734508,10.4366988 72.7373021,10.3032372 C72.4722401,10.1697756 72.1011534,10.036314 71.8360914,9.90285235 C70.03367,8.8618517 69.3710151,6.37946553 70.4047568,4.56438747 C71.0409055,3.3899252 72.3397091,2.61584779 73.7710438,2.61584779 C75.9710581,2.61584779 77.6409485,4.29746423 77.6409485,6.51292715 C77.4023927,7.82085105 76.7397378,9.12877495 75.5734651,9.90285235 Z" id="Shape"></path>
                    <path d="M64.2607323,58.6390542 L61.526233,58.6390542 L58.7917338,58.6390542 L58.6576897,58.6390542 L53.3763529,58.6390542 C53.3763529,58.7716374 53.2423089,58.7716374 53.2423089,58.9042207 C52.8401766,59.4345535 52.8401766,60.203536 53.2423089,60.8399354 C53.3763529,60.9725186 53.3763529,61.237685 53.510397,61.3702682 L58.470028,61.3702682 L58.6040721,61.3702682 L59.6496159,61.3702682 L61.3385713,61.3702682 L62.9202915,61.3702682 L62.9202915,75.6097041 L2.76130806,75.6097041 L2.76130806,21.2505914 L21.0717295,21.2505914 L21.0717295,49.7294631 C21.0717295,50.4984457 21.6079058,51.0287785 22.3853615,51.0287785 L28.9267126,51.0287785 L28.9267126,60.0974695 C28.9267126,60.866452 29.4628889,61.3967848 30.2403446,61.3967848 L32.1973882,61.3967848 L34.4225199,61.3967848 L36.0042401,61.3967848 L41.0979151,61.3967848 C41.2319592,61.2642016 41.2319592,60.9990352 41.3660033,60.866452 C41.7681356,60.2300527 41.7681356,59.5671367 41.3660033,58.9307373 C41.3660033,58.9307373 41.3660033,58.7981541 41.2319592,58.7981541 L35.870196,58.7981541 L34.2884758,58.7981541 L31.4199325,58.7981541 L31.4199325,49.7294631 C31.4199325,48.9604805 30.8837562,48.4301477 30.1063005,48.4301477 L23.5649494,48.4301477 L23.5649494,19.951276 C23.5649494,19.1822934 23.0287731,18.6519606 22.2513174,18.6519606 L20.8036413,18.6519606 C20.1602297,13.7463821 15.4418781,10.2461856 10.4554383,11.0151682 C6.40730706,11.545501 3.27067557,14.7805311 2.73449925,18.6519606 L1.31363199,18.6519606 C0.536176323,18.6519606 0,19.1822934 0,19.951276 L0,76.8825028 C0,77.6514854 0.536176323,78.1818182 1.31363199,78.1818182 L64.1266882,78.1818182 C64.9041439,78.1818182 65.4403202,77.6514854 65.4403202,76.8825028 L65.4403202,60.0709528 C65.5475555,59.3019703 65.038188,58.6390542 64.2607323,58.6390542 Z M11.9031144,13.3486325 C15.0397459,13.3486325 17.6670098,15.5495137 18.3104214,18.5193774 L5.49580731,18.5193774 C6.16602771,15.5495137 8.90052696,13.3486325 11.9031144,13.3486325 Z" id="Shape"></path>
                    <path d="M53.5032146,59.7573343 C53.3712338,59.4856936 53.3712338,59.1053966 53.5032146,58.8337559 C53.6351954,58.5621152 53.7671763,58.2904745 53.8991571,58.1818182 L51.7082755,58.1818182 C51.312333,58.9695762 51.312333,60.028975 51.8402563,60.8438971 C52.3681796,61.6316552 52.6057451,62.5552336 52.6057451,63.5059761 C52.7377259,65.2173126 52.0778218,66.9558131 50.9427867,68.1510322 C49.7813555,69.3462514 48.1183972,69.9981891 46.4290427,69.8623687 C43.4726723,69.590728 41.1498099,66.9558131 41.1498099,63.8862731 C41.1498099,62.8268743 41.4137715,61.7674756 41.9152986,60.8438971 C42.4432219,60.0561391 42.4432219,58.9967403 42.0472795,58.1818182 L39.8563978,58.1818182 C39.9883787,58.4534589 40.1203595,58.7250996 40.2523403,58.8337559 C40.3843211,59.1053966 40.3843211,59.4856936 40.2523403,59.7573343 C39.4868516,60.9525534 39.0909091,62.4194133 39.0909091,63.859109 C39.0909091,67.9608837 42.1792603,71.4107208 46.165081,71.8181818 C46.4290427,71.8181818 46.5610235,71.8181818 46.798589,71.8181818 C48.8574898,71.8181818 50.7844097,71.0304238 52.2098026,69.5635639 C53.7671763,67.9608837 54.6646458,65.7062658 54.532665,63.451648 C54.532665,62.1477725 54.1367226,60.9525534 53.5032146,59.7573343 Z" id="Shape"></path>
                </g>
            </g>
        </g>
    </g>
</svg>
