
<svg width="200px" height="63px" viewBox="0 0 235 75" version="1.1" xmlns="http://www.w3.org/2000/svg" xmlns:xlink="http://www.w3.org/1999/xlink">
    <!-- Generator: Sketch 51.2 (57519) - http://www.bohemiancoding.com/sketch -->
    <desc>Created with Sketch.</desc>
    <defs></defs>
    <g id="Drives-Mockups" stroke="none" stroke-width="1" fill="none" fill-rule="evenodd">
        <g id="01-Home" transform="translate(-202.000000, -18.000000)" fill-rule="nonzero">
            <g id="Header-Dark" transform="translate(0.000000, -1.000000)">
                <g id="Brand-logos-drives" transform="translate(202.000000, 19.000000)">
                    <path d="M104.747715,70.1641791 C104.18515,69.9976599 103.59518,69.9202439 103.003656,69.9353234 C101.347349,69.9353234 100.689214,70.3830846 100.689214,71.9253731 C100.689214,73.4676617 101.347349,74.0248756 103.091408,74.0248756 C103.682559,74.0343664 104.271512,73.9570838 104.835466,73.7960199 L105,74.7014925 C104.286524,74.8886254 103.548818,74.9890048 102.806216,75 C100.239488,75 99,74.0049751 99,71.9253731 C99,69.9353234 100.239488,69 102.893967,69 C103.561726,69.0249653 104.225922,69.1015277 104.879342,69.2288557 L104.714808,70.2238806 L104.747715,70.1641791 Z" id="Shape" fill="#FFFFFF"></path>
                    <polygon id="Shape" fill="#FFFFFF" points="111.595745 75 111.595745 72.4285714 108.404255 72.4285714 108.404255 75 107 75 107 69 108.404255 69 108.404255 71.4165232 111.595745 71.4165232 111.595745 69 113 69 113 75"></polygon>
                    <path d="M121.129555,70.383821 L119.91498,72.7177281 L122.854251,72.7177281 L121.639676,70.383821 L121.360324,69.7641997 L121.080972,70.383821 L121.129555,70.383821 Z M123.425101,73.6574871 L119.574899,73.6574871 L118.931174,74.979346 L117,74.979346 L120.40081,69 L122.51417,69 L126,75 L123.983806,75 L123.437247,73.6781411 L123.425101,73.6574871 Z" id="Shape" fill="#FFFFFF"></path>
                    <polygon id="Shape" fill="#FFFFFF" points="128 69 130 69 130 75 128 75"></polygon>
                    <polygon id="Shape" fill="#FFFFFF" points="137.891761 75 134.04685 71.3339071 133.537964 70.7969019 133.447496 70.7969019 133.537964 71.4991394 133.537964 75 132 75 132 69 133.447496 69 137.03231 72.5111876 137.552504 73.0481928 137.552504 73.0481928 137.552504 72.4285714 137.552504 69 139 69 139 75"></polygon>
                    <path d="M150.163265,72.3505155 L148.397959,72.3505155 L148.397959,74.0618557 L150.173469,74.0618557 C151.020408,74.0618557 151.408163,73.8247423 151.408163,73.2061856 C151.408163,72.5876289 151.102041,72.3505155 150.173469,72.3505155 L150.163265,72.3505155 Z M150.081633,69.9381443 L148.459184,69.9381443 L148.459184,71.4948454 L150.153061,71.4948454 C150.918367,71.4948454 151.234694,71.257732 151.234694,70.7216495 C151.234694,70.185567 150.846939,69.9484536 150.081633,69.9484536 L150.081633,69.9381443 Z M150.234694,75 L147,75 L147,69 L150.153061,69 C151.846939,69 152.693878,69.5463918 152.693878,70.4742268 C152.672218,71.1113814 152.22781,71.6535584 151.612245,71.7938144 C152.537415,71.95189 153,72.419244 153,73.1958763 C152.918367,74.3608247 152.153061,74.9896907 150.22449,74.9896907 L150.234694,75 Z" id="Shape" fill="#FFFFFF"></path>
                    <polygon id="Shape" fill="#FFFFFF" points="157.674352 69 159.197406 71.4991394 159.5 72.0361446 159.570605 72.0361446 159.883285 71.4165232 161.40634 69 163 69 160.256484 73.0481928 160.256484 75 158.733429 75 158.733429 73.0481928 156 69"></polygon>
                    <polygon id="Shape" fill="#FFFFFF" points="173.724832 70.0120482 173.724832 75 172.275168 75 172.275168 70.0120482 170 70.0120482 170 69 175.92953 69 176 70.0120482"></polygon>
                    <polygon id="Shape" fill="#FFFFFF" points="179 69 181 69 181 75 179 75"></polygon>
                    <polygon id="Shape" fill="#FFFFFF" points="185.886364 69 188.204545 72.8209983 188.545455 73.4406196 188.545455 73.4406196 188.886364 72.8209983 191.204545 69 193 69 193 75 191.545455 75 191.545455 71.5714286 191.545455 70.869191 191.545455 70.869191 191.204545 71.4991394 189.056818 75 187.943182 75 185.795455 71.4991394 185.454545 70.869191 185.454545 70.869191 185.454545 71.5714286 185.454545 75 184 75 184 69"></polygon>
                    <polygon id="Shape" fill="#FFFFFF" points="200.02648 75 197.638629 72.3562823 196.570093 72.3562823 196.570093 75 195 75 195 69 196.570093 69 196.570093 71.4991394 197.638629 71.4991394 200.02648 69 201.836449 69 199.121495 71.8812392 202 75"></polygon>
                    <polygon id="Shape" fill="#FFFFFF" points="211 73.9879518 210.920455 75 205 75 205 69 210.75 69 210.829545 70.0120482 206.715909 70.0120482 206.715909 71.4991394 210.147727 71.4991394 210.147727 72.3562823 206.715909 72.3562823 206.715909 73.9879518"></polygon>
                    <polygon id="Shape" fill="#FFFFFF" points="219.812601 75 216.058158 71.3339071 215.458805 70.7969019 215.458805 70.7969019 215.458805 71.4991394 215.458805 75 214 75 214 69 215.458805 69 219.043619 72.5111876 219.552504 73.0481928 219.552504 73.0481928 219.552504 72.4285714 219.552504 69 221 69 221 75"></polygon>
                    <path d="M67.96,51.189404 C67.73,49.389404 67.51,47.613245 67.36,46.0635762 C67.06,43.810596 66.08,43 63.74,43 L62,43 L62,52 C63.89,51.6423841 65.92,51.4635762 68,51.189404 L67.96,51.189404 Z" id="Shape" fill="#FF8000"></path>
                    <path d="M127,37.0843373 L127.898268,42 C128.883117,41.7624785 129.857143,41.535284 130.917749,41.2254733 L132,36 C130.279221,36.3924269 128.655844,36.7022375 127.021645,37.0946644 L127,37.0843373 Z" id="Shape" fill="#FF8000"></path>
                    <path d="M88,41 C86.3333333,41.1571856 84.6666667,41.241018 83,41.3982036 C83,41.4820359 83.0980392,41.6392216 83.0980392,41.7125749 C83.5637255,43.3787425 83.8333333,45.505988 84.2132353,48 L88,47.5284431 L88,41 Z" id="Shape" fill="#FF8000"></path>
                    <path d="M184,14.5654835 L184,17 C201.366969,7.85495716 210,0 210,0 C210,0 200.952135,6.75214198 184,14.5654835 Z" id="Shape" fill="#FF8000"></path>
                    <path d="M36,54 C39.1050228,53.8194748 42.4611872,53.5426696 46,53.2778993 L46,43 L42.5753425,43 C41.6464472,47.3444966 39.333909,51.2224125 36.0228311,53.987965 L36,54 Z" id="Shape" fill="#FF8000"></path>
                    <path d="M112.297297,38 C110.640927,38.2424699 109.065637,38.4743976 107.316602,38.6325301 C106.53878,38.7004466 105.765484,38.8060178 105,38.9487952 L105,45 C108.057915,44.5256024 111.11583,44.0406627 114,43.4924699 L112.343629,38 L112.297297,38 Z" id="Shape" fill="#FF8000"></path>
                    <path d="M23.8448519,45.1170882 C24.3763607,44.2550805 24.7657483,43.3237466 25,42.3542146 C21.7376587,42.2597573 18.6530324,42.0826501 16,42 L16,47.974419 L17.8152327,47.974419 C20.253281,48.1858345 22.6046299,47.0739124 23.8575458,45.1170882 L23.8448519,45.1170882 Z" id="Shape" fill="#FF8000"></path>
                    <path d="M151.989267,28 L147.373882,29.3691275 L146,34 C148.028623,33.3154362 150.046512,32.6308725 152,31.9865772 L152,28 L151.989267,28 Z" id="Shape" fill="#FF8000"></path>
                    <path d="M230.500069,24.999861 C232.985312,24.999861 235,22.9851735 235,20.4999305 C235,18.0146875 232.985312,16 230.500069,16 C228.014826,16 226.000139,18.0146875 226.000139,20.4999305 C225.990706,21.696253 226.461775,22.8463167 227.307729,23.6922708 C228.153683,24.5382249 229.303747,25.0092937 230.500069,24.999861 Z M230.500069,24.2050681 C228.453779,24.2050681 226.794932,22.5462215 226.794932,20.4999305 C226.794932,18.4536395 228.453779,16.7947929 230.500069,16.7947929 C232.54636,16.7947929 234.205207,18.4536395 234.205207,20.4999305 C234.161845,22.5279886 232.528128,24.1617055 230.500069,24.2050681 Z M230.231242,20.7687575 C230.508072,20.7412625 230.786463,20.8026723 231.026035,20.9440795 C231.263674,21.2841479 231.36005,21.7031743 231.294862,22.1128926 C231.31038,22.4425679 231.369329,22.7687546 231.470184,23.0830075 L232.533804,23.0830075 C232.375559,22.5949224 232.258271,22.0944965 232.18316,21.5869267 C232.089655,21.0609608 232.007838,20.7103169 231.306551,20.5233068 C231.938612,20.4674957 232.410701,19.9175898 232.37017,19.2843649 C232.37017,18.045423 231.400056,17.870101 230.429941,17.870101 L228.758538,17.870101 L228.758538,23.1648244 L229.553331,23.1648244 L229.553331,20.8271982 L230.254619,20.8271982 L230.231242,20.7687575 Z M229.529955,19.9739646 L229.529955,18.6532058 L230.500069,18.6532058 C231.11954,18.6532058 231.294862,18.8285277 231.294862,19.2726767 C231.294862,19.7168257 231.11954,19.9739646 230.324748,20.0674697 L229.529955,20.0674697 L229.529955,19.9739646 Z" id="Shape" fill="#FFFFFF"></path>
                    <path d="M0,57.831563 L20.8711684,57.831563 C33.9085938,57.831563 42.2502885,50.0419828 42.2502885,37.4228629 C42.2502885,24.9929186 36.8772889,16.0905412 19.8439773,16.0905412 L0,16.0905412 L0,57.831563 Z M16.4463453,25.4936773 L18.0605027,25.4936773 C20.2255275,25.3236846 22.3033147,26.3693832 23.4335022,28.1977744 C24.5622837,29.9671219 24.8783424,32.9049064 24.8783424,36.9332322 C24.8783424,40.9615579 24.539708,43.8993424 23.4335022,45.6686899 C22.3193731,47.5129521 20.2284857,48.5609134 18.0605027,48.3616591 L16.4463453,48.3616591 L16.4463453,25.4936773 Z M44.9932273,57.831563 L61.4395726,57.831563 L61.4395726,42.9645928 L63.4036522,42.9645928 C66.1353033,42.9645928 67.1512065,43.7991907 67.489841,45.8244815 C68.0880951,49.4410723 68.6186224,54.6489631 69.6232378,57.831563 L86.0695831,57.831563 C84.0942156,51.5665149 84.2635328,45.646434 83.3717955,42.0409712 C82.5252095,38.8472433 80.3015101,37.0890238 76.2153213,36.7440567 L76.2153213,36.6550329 C82.5252095,35.1416287 84.6473185,31.5361659 84.6473185,26.6398584 C84.6473185,18.7501265 79.274319,16.0571573 70.1650529,16.0571573 L44.9932273,16.0571573 L44.9932273,57.831563 Z M61.4395726,33.472433 L61.4395726,25.5715731 L62.9747153,25.5715731 C66.2933327,25.5715731 68.4267295,26.2392514 68.4267295,29.2660597 C68.4267295,32.292868 66.0450008,33.461305 62.8844128,33.461305 L61.4395726,33.472433 Z M87.7627552,57.831563 L104.547735,57.831563 L104.547735,15.9570056 L87.7514674,15.9570056 L87.7514674,57.831563 L87.7627552,57.831563 Z M117.246526,57.831563 L138.975568,57.831563 L150.805197,15.9570056 L134.697487,15.9570056 L128.523052,48.6732423 L128.43275,48.6732423 L122.427633,15.9570056 L105.304018,15.9570056 L117.235238,57.831563 L117.246526,57.831563 Z M151.663071,57.831563 L184.465459,57.831563 L184.465459,46.9038948 L167.759494,46.9038948 L167.759494,42.2078907 L182.70456,42.2078907 L182.70456,31.2913505 L167.759494,31.2913505 L167.759494,26.8401619 L183.94622,26.8401619 L183.94622,15.9570056 L151.742086,15.9570056 L151.742086,57.831563 L151.663071,57.831563 Z M223.826067,27.9307031 C223.826067,18.1825999 215.924597,15 205.336628,15 C192.987759,15 185.831285,19.9519474 185.831285,28.6095094 C185.831285,33.9843197 188.088848,37.8457258 194.601916,39.737481 L206.533136,43.1760243 C208.147293,43.676783 209.343802,44.4334851 209.343802,46.035913 C209.343802,47.8831563 207.729644,49.4744562 205.257613,49.4744562 C203.988402,49.6048607 202.734027,49.1193452 201.893844,48.1724836 C201.258481,47.2306762 200.960512,46.1065955 201.047258,44.9787557 L184.962123,44.9787557 C184.962123,55.8952959 194.331009,59 204.557769,59 C216.568003,59 225,54.7157309 225,44.466869 C225,39.4258978 222.618271,35.6423875 217.335574,33.461305 C213.080068,31.6919575 207.108815,30.5235205 203.869212,29.5998988 C202.074449,29.0991401 201.137561,28.4203338 201.137561,26.9069297 C201.137561,25.6494689 202.334069,24.4699039 205.054432,24.4699039 C207.311995,24.4699039 208.722972,25.3045018 208.722972,27.9084471 L223.803492,27.9084471 L223.826067,27.9307031 Z" id="Shape" fill="#FFFFFF"></path>
                </g>
            </g>
        </g>
    </g>
</svg>
