
<svg width="84px" height="68px" viewBox="0 0 84 68" version="1.1" xmlns="http://www.w3.org/2000/svg" xmlns:xlink="http://www.w3.org/1999/xlink">
    <!-- Generator: Sketch 51.2 (57519) - http://www.bohemiancoding.com/sketch -->
    <desc>Created with Sketch.</desc>
    <defs></defs>
    <g id="Drives-Mockups" stroke="none" stroke-width="1" fill="none" fill-rule="evenodd">
        <g id="01-Home" transform="translate(-520.000000, -1880.000000)" fill="#FF8300" fill-rule="nonzero">
            <g id="icons-dark" transform="translate(198.000000, 1671.000000)">
                <g id="hat" transform="translate(322.000000, 209.000000)">
                    <path d="M4.1971831,42 L6.90140845,42 L15.4366197,42 L18.1408451,42 L20.8450704,42 L23.5492958,42 L54.3098592,42 L54.3098592,39.2975871 L4.1971831,39.2975871 C3.38028169,39.2975871 2.84507042,38.7627346 2.84507042,37.9463807 L2.84507042,35.2439678 C2.84507042,34.4276139 3.38028169,33.8927614 4.1971831,33.8927614 L80.1126761,33.8927614 C80.9295775,33.8927614 81.4647887,34.4276139 81.4647887,35.2439678 L81.4647887,37.9463807 C81.4647887,38.7627346 80.9295775,39.2975871 80.1126761,39.2975871 L57.0704225,39.2975871 L57.0704225,42 L60.7323944,42 L63.4366197,42 L66.1408451,42 L68.8450704,42 L77.2394366,42 L79.943662,42 C82.2535211,42 84,40.2265416 84,37.9463807 L84,35.2439678 C84,32.9356568 82.2253521,31.1903485 79.943662,31.1903485 L79.2676056,31.1903485 C76.028169,13.2868633 60.1690141,0 42,0 C23.6901408,0 7.83098592,13.2868633 4.73239437,31.1621984 L4.05633803,31.1621984 C1.74647887,31.1621984 0,32.9356568 0,35.2158177 L0,37.9182306 C0.112676056,40.2546917 1.88732394,42 4.1971831,42 Z M27.2394366,31.1621984 L16.3943662,31.1621984 L16.3943662,27.1085791 C16.3943662,24.8002681 18.1690141,23.0549598 20.4507042,23.0549598 L23.1549296,23.0549598 C25.4647887,23.0549598 27.2112676,24.8284182 27.2112676,27.1085791 L27.2112676,31.1621984 L27.2394366,31.1621984 Z M57.0704225,6.10857909 C66.9577465,10.8378016 74.5633803,20.0710456 76.7323944,31.1621984 L70.6197183,31.1621984 L70.6197183,27.1085791 C70.6197183,23.308311 67.6338028,20.3243968 63.8309859,20.3243968 L61.1267606,20.3243968 C59.6338028,20.3243968 58.1408451,20.8592493 57.0704225,21.6756032 L57.0704225,6.10857909 Z M57.0704225,27.1085791 C57.0704225,24.8002681 58.8450704,23.0549598 61.1267606,23.0549598 L63.8309859,23.0549598 C66.1408451,23.0549598 67.8873239,24.8284182 67.8873239,27.1085791 L67.8873239,31.1621984 L57.0422535,31.1621984 L57.0422535,27.1085791 L57.0704225,27.1085791 Z M29.943662,27.1085791 L29.943662,4.89812332 C30.9014085,4.61662198 31.7183099,4.22252011 32.6478873,3.94101877 L32.6478873,18.8324397 C32.6478873,22.6327078 35.6338028,25.616622 39.4366197,25.616622 L44.8450704,25.616622 C48.6478873,25.616622 51.6338028,22.6327078 51.6338028,18.8324397 L51.6338028,9.37399464 L48.9295775,9.37399464 L48.9295775,18.8605898 C48.9295775,21.1689008 47.1549296,22.9142091 44.8732394,22.9142091 L39.4647887,22.9142091 C37.1549296,22.9142091 35.4084507,21.1407507 35.4084507,18.8605898 L35.4084507,3.40616622 C37.5774648,3.01206434 39.8873239,2.730563 42.1971831,2.730563 C44.5070423,2.730563 46.8169014,3.01206434 48.9859155,3.40616622 L48.9859155,6.78418231 L51.6901408,6.78418231 L51.6901408,4.08176944 C52.6478873,4.36327078 53.4647887,4.61662198 54.3943662,5.03887399 L54.3943662,27.2493298 L54.3943662,31.3029491 L30,31.3029491 C29.943662,31.3029491 29.943662,27.1085791 29.943662,27.1085791 Z M27.2394366,6.10857909 L27.2394366,21.6756032 C26.1690141,20.8592493 24.6760563,20.3243968 23.1830986,20.3243968 L20.4788732,20.3243968 C16.6760563,20.3243968 13.6901408,23.308311 13.6901408,27.1085791 L13.6901408,31.1621984 L7.57746479,31.1621984 C9.74647887,20.0710456 17.2112676,10.8378016 27.2394366,6.10857909 Z" id="Shape"></path>
                    <g id="Group" transform="translate(4.097561, 39.951220)">
                        <path d="M62.1106942,4.12112195 C62.1106942,8.65712195 58.4521576,12.2527317 53.836773,12.2527317 C49.2213884,12.2527317 45.5628518,8.65712195 45.5628518,4.12112195 C45.5628518,2.65521951 45.956848,1.32760976 46.6322702,0.138292683 L43.6491557,0.138292683 C43.1144465,1.32760976 42.8330206,2.65521951 42.8330206,4.12112195 C42.8330206,10.1230244 47.7016886,14.9079512 53.8086304,14.9079512 C59.9155722,14.9079512 64.7842402,10.1230244 64.7842402,4.12112195 C64.7842402,2.65521951 64.5028143,1.32760976 63.9681051,0.138292683 L60.9849906,0.138292683 C61.6885553,1.32760976 62.1106942,2.65521951 62.1106942,4.12112195 Z" id="Shape"></path>
                        <path d="M31.7729831,4.12112195 C31.7729831,8.65712195 28.1144465,12.2527317 23.4990619,12.2527317 C18.8836773,12.2527317 15.2251407,8.65712195 15.2251407,4.12112195 C15.2251407,2.65521951 15.619137,1.32760976 16.2945591,0.138292683 L13.3395872,0.138292683 C12.804878,1.32760976 12.5234522,2.65521951 12.5234522,4.12112195 C12.5234522,10.1230244 17.3921201,14.9079512 23.4990619,14.9079512 C29.6060038,14.9079512 34.4746717,10.1230244 34.4746717,4.12112195 C34.4746717,2.65521951 34.1932458,1.32760976 33.6585366,0.138292683 L30.6754221,0.138292683 C31.3508443,1.32760976 31.7729831,2.65521951 31.7729831,4.12112195 Z" id="Shape"></path>
                        <path d="M35.684803,4.12112195 C35.684803,10.7868293 30.1407129,16.235561 23.358349,16.235561 C16.575985,16.235561 11.0600375,10.7868293 11.0600375,4.12112195 C11.0600375,2.65521951 11.3414634,1.32760976 11.7354597,0.138292683 L8.89305816,0.138292683 C8.49906191,1.46590244 8.35834897,2.7935122 8.35834897,4.12112195 C8.35834897,12.2527317 15.1407129,18.8907805 23.3864916,18.8907805 C31.6322702,18.8907805 38.4146341,12.2250732 38.4146341,4.12112195 C38.4146341,2.7935122 38.1332083,1.46590244 37.879925,0.138292683 L35.0375235,0.138292683 C35.4315197,1.32760976 35.684803,2.7935122 35.684803,4.12112195 Z" id="Shape"></path>
                        <path d="M66.0225141,4.12112195 C66.0225141,10.7868293 60.478424,16.235561 53.69606,16.235561 C46.9136961,16.235561 41.369606,10.7868293 41.369606,4.12112195 C41.369606,2.65521951 41.6510319,1.32760976 42.0450281,0.138292683 L39.2026266,0.138292683 C38.8086304,1.46590244 38.6679174,2.7935122 38.6679174,4.12112195 C38.6679174,12.2527317 45.4502814,18.8907805 53.69606,18.8907805 C61.9418386,18.8907805 68.7242026,12.2250732 68.7242026,4.12112195 C68.7242026,2.7935122 68.4427767,1.46590244 68.1894934,0.138292683 L65.3470919,0.138292683 C65.7692308,1.32760976 66.0225141,2.7935122 66.0225141,4.12112195 Z" id="Shape"></path>
                        <path d="M73.8742964,0.138292683 C74.2682927,1.99141463 74.4090056,3.87219512 74.2682927,5.86360976 C73.3114447,16.5121463 64.249531,24.7543902 53.2739212,24.7543902 C49.4746717,24.7543902 45.7035647,23.7033659 42.4390244,21.8225854 C41.2288931,21.1587805 39.8780488,20.771561 38.4990619,20.771561 C37.120075,20.771561 35.7973734,21.1587805 34.5590994,21.8225854 C31.3227017,23.814 27.5234522,24.7543902 23.7242026,24.7543902 C12.8893058,24.7543902 3.68667917,16.5121463 2.72983114,5.86360976 C2.5891182,3.87219512 2.72983114,1.99141463 3.12382739,0.138292683 L0.422138837,0.138292683 C0.0281425891,2.12970732 -0.112570356,4.12112195 0.140712946,6.14019512 C1.09756098,18.1163415 11.5103189,27.4372683 23.69606,27.4372683 C28.0300188,27.4372683 32.2232645,26.2479512 36.0225141,24.1182439 C37.5140713,23.1778537 39.3996248,23.1778537 40.891182,24.1182439 C44.5497186,26.3862439 48.8836773,27.4372683 53.217636,27.4372683 C65.4033771,27.4372683 75.8442777,18.1163415 76.7729831,6.14019512 C76.9136961,4.14878049 76.7729831,2.15736585 76.4915572,0.138292683 L73.8742964,0.138292683 Z" id="Shape"></path>
                        <path d="M22.1482176,0.138292683 L17.8142589,0.138292683 C16.9981238,1.18931707 16.4634146,2.65521951 16.4634146,4.12112195 C16.4634146,7.85502439 19.587242,11.0357561 23.4990619,11.0357561 L23.4990619,8.38053659 C21.1913696,8.38053659 19.1651032,6.52741463 19.1651032,4.12112195 C19.1651032,2.268 20.4033771,0.663804878 22.1482176,0.138292683 Z" id="Shape"></path>
                        <path d="M58.0300188,4.12112195 C58.0300188,6.38912195 56.1444653,8.38053659 53.69606,8.38053659 L53.69606,11.0357561 C57.4953096,11.0357561 60.7317073,7.96565854 60.7317073,4.12112195 C60.7317073,2.65521951 60.1969981,1.18931707 59.380863,0.138292683 L55.0469043,0.138292683 C56.8198874,0.663804878 58.0300188,2.268 58.0300188,4.12112195 Z" id="Shape"></path>
                    </g>
                </g>
            </g>
        </g>
    </g>
</svg>
