
<svg width="22px" height="22px" viewBox="0 0 22 22" version="1.1" xmlns="http://www.w3.org/2000/svg" xmlns:xlink="http://www.w3.org/1999/xlink">
    <!-- Generator: Sketch 51.2 (57519) - http://www.bohemiancoding.com/sketch -->
    <desc>Created with Sketch.</desc>
    <defs></defs>
    <g id="Drives-Mockups" stroke="none" stroke-width="1" fill="none" fill-rule="evenodd">
        <g id="01-Home" transform="translate(-1379.000000, -22.000000)" fill="#FF8300" stroke="#FF8300" stroke-width="0.5">
            <g id="Header-Dark" transform="translate(0.000000, -1.000000)">
                <g id="sub-nav" transform="translate(1037.000000, 23.000000)">
                    <path d="M350.064677,7.14686977 C350.542817,4.66293916 351.447145,2.83146958 352.4272,2.30228053 L352.4272,7.64700185 C351.61445,7.58888791 350.822833,7.42159021 350.064677,7.14686977 L350.064677,7.14686977 Z M348.570378,11.5723342 C348.592392,12.5092014 348.667239,13.4222946 348.7958,14.2940037 C347.736495,14.7976578 346.759961,15.4941446 345.937525,16.3306331 C344.883503,14.9403011 344.276802,13.3087083 344.166733,11.5723342 L348.570378,11.5723342 Z M346.617312,4.87250154 C347.719764,3.72519151 349.103993,2.89750814 350.618544,2.4739808 C349.906177,3.4645593 349.333818,4.91652725 348.977194,6.66698952 C348.101043,6.20648058 347.296218,5.5945232 346.617312,4.87250154 L346.617312,4.87250154 Z M349.00361,15.4694902 C349.363756,17.1759267 349.915863,18.5627366 350.610619,19.5224971 C349.134813,19.1068944 347.778761,18.306507 346.690398,17.1997006 C347.359618,16.5040944 348.148593,15.9150304 349.00361,15.4694902 L349.00361,15.4694902 Z M344.166733,10.4267852 C344.27416,8.72475125 344.858847,7.12485692 345.874125,5.75301576 C346.705367,6.61327815 347.698631,7.33001673 348.775547,7.84599806 C348.660195,8.678084 348.590631,9.54274897 348.570378,10.4267852 L344.166733,10.4267852 Z M352.4272,14.5018051 L352.4272,19.6959584 C351.469159,19.1738135 350.577158,17.3978163 350.092854,14.9922515 C350.841324,14.7236946 351.623255,14.559919 352.4272,14.5018051 L352.4272,14.5018051 Z M352.4272,11.5723342 L352.4272,13.3536145 C351.560736,13.4090869 350.713644,13.5737431 349.900013,13.8467025 C349.79875,13.1053095 349.737991,12.3436647 349.717739,11.5723342 L352.4272,11.5723342 Z M352.4272,8.79519239 L352.4272,10.4267852 L349.717739,10.4267852 C349.73623,9.70476358 349.790825,8.99154706 349.880641,8.29682134 C350.699555,8.57330281 351.552811,8.73972 352.4272,8.79519239 L352.4272,8.79519239 Z M355.915951,14.9473452 C355.433408,17.378445 354.537886,19.1720525 353.5728,19.696839 L353.5728,14.4921194 C354.374103,14.5370256 355.159556,14.6902351 355.915951,14.9473452 L355.915951,14.9473452 Z M353.5728,7.65756802 L353.5728,2.30140002 C354.5599,2.83411112 355.46775,4.6840715 355.944129,7.19265651 C355.179809,7.45593026 354.38467,7.61178128 353.5728,7.65756802 L353.5728,7.65756802 Z M357.036015,6.73038655 C356.680271,4.95174782 356.102628,3.4768865 355.381456,2.4739808 C356.928587,2.9071938 358.337472,3.76041208 359.452252,4.94822576 C358.756615,5.67112794 357.932418,6.27868275 357.036015,6.73038655 L357.036015,6.73038655 Z M361.834148,10.4267852 L357.428741,10.4267852 C357.409369,9.56388131 357.343328,8.71858766 357.232378,7.90675354 C358.327786,7.40309941 359.3369,6.69516598 360.185753,5.83754513 C361.163166,7.19089548 361.727601,8.76261337 361.834148,10.4267852 L361.834148,10.4267852 Z M361.834148,11.5723342 C361.72584,13.2761293 361.139392,14.8777846 360.122353,16.2505063 C359.281425,15.4148983 358.28728,14.7245752 357.213006,14.2323677 C357.335403,13.3782689 357.407608,12.486308 357.428741,11.5723342 L361.834148,11.5723342 Z M359.380047,17.1292595 C358.277594,18.275689 356.894246,19.1016113 355.380575,19.5251387 C356.084137,18.5477679 356.651213,17.1213349 357.007837,15.4052126 C357.883107,15.8428282 358.691454,16.4301312 359.380047,17.1292595 L359.380047,17.1292595 Z M353.5728,10.4267852 L353.5728,8.80487805 C354.443667,8.76085234 355.298684,8.60500132 356.124642,8.33908603 C356.210936,9.02060403 356.26377,9.71973232 356.282261,10.4267852 L353.5728,10.4267852 Z M353.5728,13.3448094 L353.5728,11.5723342 L356.282261,11.5723342 C356.262009,12.3295765 356.203011,13.077133 356.10439,13.8044378 C355.284595,13.5420446 354.436622,13.3879546 353.5728,13.3448094 L353.5728,13.3448094 Z M352.99956,1 C347.485537,1 343,5.48533944 343,10.9991195 C343,16.51378 347.485537,21 352.99956,21 C358.513583,21 363,16.51378 363,10.9991195 C363,5.48533944 358.513583,1 352.99956,1 L352.99956,1 Z" id="Language-Icon"></path>
                </g>
            </g>
        </g>
    </g>
</svg>
