
<svg width="75px" height="84px" viewBox="0 0 75 84" version="1.1" xmlns="http://www.w3.org/2000/svg" xmlns:xlink="http://www.w3.org/1999/xlink">
    <!-- Generator: Sketch 51.2 (57519) - http://www.bohemiancoding.com/sketch -->
    <desc>Created with Sketch.</desc>
    <defs></defs>
    <g id="Drives-Mockups" stroke="none" stroke-width="1" fill="none" fill-rule="evenodd">
        <g id="01-Home" transform="translate(-1003.000000, -1873.000000)" fill="#FF8300" fill-rule="nonzero" stroke="#FF8300">
            <g id="icons-dark" transform="translate(198.000000, 1671.000000)">
                <g id="noun_1513723_cc" transform="translate(798.000000, 203.000000)">
                    <g id="Group" transform="translate(8.010989, 0.000000)">
                        <path d="M63.9989011,81.8901099 L63.9989011,63.0197802 L72.543956,63.0197802 L72.543956,15.2208791 L39.0758242,14.9538462 L39.0758242,0 L24.8340659,0 L24.8340659,14.8648352 L17.7131868,14.8648352 L17.7131868,4.80659341 L7.47692308,4.80659341 C3.66180241,4.80537062 0.541640087,7.84654149 0.445054945,11.6604396 L0.445054945,55.9879121 C0.445054945,57.8528795 1.18591035,59.6414626 2.50464144,60.9601937 C3.82337252,62.2789248 5.61195569,63.0197802 7.47692308,63.0197802 L45.8406593,63.0197802 L45.8406593,81.8901099 L63.9989011,81.8901099 Z M47.6208791,80.1098901 L47.6208791,30.8868132 L62.2186813,30.8868132 L62.2186813,38.3637363 L57.5901099,38.3637363 L57.5901099,40.143956 L62.2186813,40.143956 L62.2186813,46.5527473 L57.5901099,46.5527473 L57.5901099,48.332967 L62.2186813,48.332967 L62.2186813,54.6527473 L57.5901099,54.6527473 L57.5901099,56.432967 L62.2186813,56.432967 L62.2186813,62.7527473 L57.5901099,62.7527473 L57.5901099,64.532967 L62.2186813,64.532967 L62.2186813,80.1098901 L47.6208791,80.1098901 Z M26.6142857,11.0373626 L37.2956044,11.0373626 L37.2956044,40.410989 L31.9549451,49.3120879 L26.6142857,40.410989 L26.6142857,11.0373626 Z M37.2956044,1.78021978 L37.2956044,9.25714286 L26.6142857,9.25714286 L26.6142857,1.78021978 L37.2956044,1.78021978 Z M2.22527473,12.9956044 L2.22527473,11.8384615 C2.22527473,8.93805624 4.57651778,6.58681319 7.47692308,6.58681319 L15.932967,6.58681319 L15.932967,45.7516484 L7.47692308,45.7516484 C5.45249727,45.7148898 3.52078711,46.5988928 2.22527473,48.1549451 L2.22527473,12.9956044 Z M7.47692308,61.2395604 C4.57651778,61.2395604 2.22527473,58.8883174 2.22527473,55.9879121 L2.22527473,52.7835165 C2.20091876,51.3833682 2.74639113,50.0333928 3.73659528,49.0431887 C4.72679943,48.0529845 6.07677476,47.5075122 7.47692308,47.5318681 L17.7131868,47.5318681 L17.7131868,16.556044 L24.8340659,16.556044 L24.8340659,40.9450549 L31.9549451,52.7835165 L39.0758242,40.9450549 L39.0758242,16.7340659 L70.7637363,16.9120879 L70.7637363,61.2395604 L63.9989011,61.2395604 L63.9989011,29.1065934 L45.8406593,29.1065934 L45.8406593,61.2395604 L7.47692308,61.2395604 Z" id="Shape"></path>
                        <path d="M54.9197802,68.9835165 C53.429745,68.7542843 51.9439397,69.4210758 51.12473,70.686638 C50.3055204,71.9522003 50.3055204,73.5807667 51.12473,74.846329 C51.9439397,76.1118913 53.429745,76.7786828 54.9197802,76.5494505 C56.4098154,76.7786828 57.8956208,76.1118913 58.7148304,74.846329 C59.53404,73.5807667 59.53404,71.9522003 58.7148304,70.686638 C57.8956208,69.4210758 56.4098154,68.7542843 54.9197802,68.9835165 Z M54.9197802,74.7692308 C53.7891137,74.7692308 52.8725275,73.8526445 52.8725275,72.721978 C52.8725275,71.5913116 53.7891137,70.6747253 54.9197802,70.6747253 C56.0504467,70.6747253 56.967033,71.5913116 56.967033,72.721978 C56.967033,73.8526445 56.0504467,74.7692308 54.9197802,74.7692308 Z" id="Shape"></path>
                    </g>
                </g>
            </g>
        </g>
    </g>
</svg>
