
<svg width="19px" height="29px" viewBox="0 0 19 29" version="1.1" xmlns="http://www.w3.org/2000/svg" xmlns:xlink="http://www.w3.org/1999/xlink">
    <!-- Generator: Sketch 51.2 (57519) - http://www.bohemiancoding.com/sketch -->
    <desc>Created with Sketch.</desc>
    <defs></defs>
    <g id="Drives-Mockups" stroke="none" stroke-width="1" fill="none" fill-rule="evenodd">
        <g id="07-Locations-Results" transform="translate(-1159.000000, -983.000000)" fill="#424247" fill-rule="nonzero">
            <g id="Where-to-Buy" transform="translate(-2.000000, 223.000000)">
                <g id="Results" transform="translate(211.000000, 755.000000)">
                    <g id="RESULT" transform="translate(950.000000, 0.000000)">
                        <path d="M16.2167737,7.78320401 C14.3613655,5.92758285 12.1224409,5 9.49999998,5 C6.87755908,5 4.6386345,5.92781058 2.78322625,7.78320401 C0.927817997,9.63859744 0,11.8775041 0,14.4999241 C0,15.8483695 0.204056192,16.955411 0.612168575,17.8212765 L7.38473892,32.1827549 C7.57034807,32.5908641 7.85798531,32.9124322 8.24765065,33.1472316 C8.63731599,33.3822587 9.05476577,33.5 9.50022772,33.5 C9.94546193,33.5 10.3631395,33.3822587 10.7528048,33.1472316 C11.1424701,32.9124322 11.4360286,32.5908641 11.6339358,32.1827549 L18.3876036,17.8212765 C18.7959438,16.955411 19,15.8483695 19,14.4999241 C19.0002277,11.8775041 18.0724097,9.63882518 16.2167737,7.78320401 Z M12.858273,17.858398 C11.9306827,18.7859808 10.8113343,19.2498861 9.49999998,19.2498861 C8.18866566,19.2498861 7.06931724,18.7859808 6.14149924,17.858398 C5.21368125,16.9305874 4.74977225,15.8112479 4.74977225,14.4999241 C4.74977225,13.188828 5.21368125,12.0692608 6.14149924,11.1416779 C7.06931724,10.2138673 8.1888934,9.74996204 9.49999998,9.74996204 C10.8113343,9.74996204 11.9306827,10.2138673 12.858273,11.1416779 C13.786091,12.0692608 14.25,13.188828 14.25,14.4999241 C14.25,15.8110202 13.786091,16.9303597 12.858273,17.858398 Z" id="Shape"></path>
                    </g>
                </g>
            </g>
        </g>
    </g>
</svg>
