
<svg width="91px" height="87px" viewBox="0 0 91 87" version="1.1" xmlns="http://www.w3.org/2000/svg" xmlns:xlink="http://www.w3.org/1999/xlink">
    <!-- Generator: Sketch 51.2 (57519) - http://www.bohemiancoding.com/sketch -->
    <desc>Created with Sketch.</desc>
    <defs></defs>
    <g id="Drives-Mockups" stroke="none" stroke-width="1" fill="none" fill-rule="evenodd">
        <g id="04-Product-Single" transform="translate(-499.000000, -2833.000000)" fill="#424247">
            <g id="Relates-Products" transform="translate(0.000000, 2250.000000)">
                <g id="Agriculture" transform="translate(499.000000, 583.000000)">
                    <path d="M67.1666667,87 C59.7696667,87 57.1285,84.3588333 54.8015,82.0318333 C52.7366667,79.967 51.103,78.3333333 45.5,78.3333333 C39.897,78.3333333 38.2633333,79.967 36.1985,82.0318333 C33.8715,84.3588333 31.2303333,87 23.8333333,87 C16.4363333,87 13.7951667,84.3588333 11.4681667,82.0318333 C9.40333333,79.967 7.76966667,78.3333333 2.16666667,78.3333333 C0.9685,78.3333333 0,77.3648333 0,76.1666667 C0,74.9685 0.9685,74 2.16666667,74 C9.56366667,74 12.2048333,76.6411667 14.5318333,78.9681667 C16.5966667,81.033 18.2303333,82.6666667 23.8333333,82.6666667 C29.4363333,82.6666667 31.07,81.033 33.1348333,78.9681667 C35.4618333,76.6411667 38.103,74 45.5,74 C52.897,74 55.5381667,76.6411667 57.8651667,78.9681667 C59.93,81.033 61.5636667,82.6666667 67.1666667,82.6666667 C72.7696667,82.6666667 74.4033333,81.033 76.4681667,78.9681667 C78.7951667,76.6411667 81.4363333,74 88.8333333,74 C90.0315,74 91,74.9685 91,76.1666667 C91,77.3648333 90.0315,78.3333333 88.8333333,78.3333333 C83.2303333,78.3333333 81.5966667,79.967 79.5318333,82.0318333 C77.2048333,84.3588333 74.5636667,87 67.1666667,87" id="Fill-64"></path>
                    <path d="M56.8333333,13 L35.1666667,13 C33.9685,13 33,12.0315 33,10.8333333 L33,2.16666667 C33,0.9685 33.9685,0 35.1666667,0 L56.8333333,0 C58.0315,0 59,0.9685 59,2.16666667 L59,10.8333333 C59,12.0315 58.0315,13 56.8333333,13 Z M37.3333333,8.66666667 L54.6666667,8.66666667 L54.6666667,4.33333333 L37.3333333,4.33333333 L37.3333333,8.66666667 Z" id="Fill-65"></path>
                    <path d="M64.8981289,51.3104544 L51.8981542,9.53766207 C51.5384882,8.37901673 50.3164906,7.7348363 49.1811595,8.10419573 C48.0393284,8.46915802 47.406663,9.70255467 47.7684956,10.8612 L49.9719913,17.9427876 L45.5,22.480632 L41.0280087,17.9427876 L43.2315044,10.8612 C43.593337,9.70255467 42.9606716,8.46915802 41.8188405,8.10419573 C40.679176,7.7348363 39.4615118,8.37901673 39.1018458,9.53766207 L26.1018711,51.3104544 C25.7400385,52.4690998 26.3727039,53.7024964 27.514535,54.0674587 C27.7312012,54.1378129 31.5358605,56 31.5358605,56 L45.5,46.5527532 L59.4641395,56 C59.4641395,56 63.2687988,54.1378129 63.485465,54.0674587 C64.6272961,53.7024964 65.2599615,52.4690998 64.8981289,51.3104544 Z M51.4409884,22.6697088 L54.0994833,31.2067485 L48.5636607,25.5894072 L51.4409884,22.6697088 Z M52.9338189,36.2414692 L45.5,41.2673957 L38.0661811,36.2414692 L45.5,28.6981824 L52.9338189,36.2414692 Z M42.4363393,25.5894072 L36.9005167,31.2067485 L39.5590116,22.6697088 L42.4363393,25.5894072 Z M30.6431956,51.3192487 L34.4500215,39.0798205 L41.5935076,43.912273 L30.6431956,51.3192487 Z M49.4064924,43.912273 L56.5499785,39.0798205 L60.3568044,51.3192487 L49.4064924,43.912273 Z" id="Fill-66"></path>
                    <path d="M82.8,52 L10.2,52 C8.9834,52 8,52.9834 8,54.2 C8,55.4166 8.9834,56.4 10.2,56.4 L22.3,56.4 L22.3,71.8 C22.3,73.0166 23.2834,74 24.5,74 C25.7166,74 26.7,73.0166 26.7,71.8 L26.7,56.4 L35.5,56.4 L35.5,67.4 C35.5,68.6166 36.4834,69.6 37.7,69.6 C38.9166,69.6 39.9,68.6166 39.9,67.4 L39.9,56.4 L53.1,56.4 L53.1,67.4 C53.1,68.6166 54.0834,69.6 55.3,69.6 C56.5166,69.6 57.5,68.6166 57.5,67.4 L57.5,56.4 L66.3,56.4 L66.3,71.8 C66.3,73.0166 67.2834,74 68.5,74 C69.7166,74 70.7,73.0166 70.7,71.8 L70.7,56.4 L82.8,56.4 C84.0166,56.4 85,55.4166 85,54.2 C85,52.9834 84.0166,52 82.8,52" id="Fill-67"></path>
                    <path d="M21.7494978,50 C20.9441282,50 20.1727585,49.5137043 19.8157609,48.6928015 L9.19083344,24.1549455 C8.76583634,23.1734312 9.06970927,22.0112291 9.91332851,21.3977827 C10.7590727,20.7821056 11.90019,20.8914106 12.626935,21.6543149 L25.376848,35.0386 C26.2077173,35.9108092 26.2077173,37.3206206 25.376848,38.1928298 C24.5459787,39.0650391 23.2029878,39.0650391 22.3721185,38.1928298 L17.907524,33.5060993 L23.6832346,46.8457701 C24.1698562,47.9678194 23.6959845,49.2906329 22.6292417,49.7992357 C22.3423687,49.9353093 22.0448707,50 21.7494978,50" id="Fill-68"></path>
                    <path d="M82.875,56 L70.125,56 C68.949875,56 68,54.9782857 68,53.7142857 L68,42.2857143 C68,41.0217143 68.949875,40 70.125,40 L82.875,40 C84.050125,40 85,41.0217143 85,42.2857143 L85,53.7142857 C85,54.9782857 84.050125,56 82.875,56 Z M72.25,51.4285714 L80.75,51.4285714 L80.75,44.5714286 L72.25,44.5714286 L72.25,51.4285714 Z" id="Fill-69"></path>
                </g>
            </g>
        </g>
    </g>
</svg>
