<svg>
  <defs>
    <g id="shape-computer">
      <g id="Drives-Mockups" stroke="none" stroke-width="1" fill="none" fill-rule="evenodd">
          <g id="01-Home" transform="translate(-290.000000, -1872.000000)" fill="#FF8300" fill-rule="nonzero">
              <g id="icons-dark" transform="translate(198.000000, 1671.000000)">
                  <g id="computer" transform="translate(92.000000, 201.000000)">
                      <g id="Group" transform="translate(14.238095, 8.761905)">
                          <path d="M28.5178404,26.2266453 C26.1731053,26.2266453 23.8283702,25.6359551 21.8939638,24.3069021 C21.1612341,23.8638844 20.4285044,23.8638844 19.6957746,24.3069021 C17.6441315,25.4882825 15.4459423,26.2266453 13.0718981,26.2266453 C6.44802146,26.2266453 0.732729712,21.0581059 0.146545942,14.3833066 C-0.146545942,10.6914928 1.17236754,6.97014446 3.8101945,4.16436597 C6.44802146,1.50626003 10.1409792,0.0295345104 13.8046278,0.324879615 C15.856271,0.472552167 17.9079142,1.06324238 19.6664655,2.24462279 C20.2526492,2.68764045 21.1319249,2.68764045 21.8646546,2.24462279 C23.6232059,1.21091493 25.6748491,0.472552167 27.7264923,0.324879615 C31.3901408,0.0295345104 35.0830986,1.50626003 37.7209256,4.16436597 C40.3587525,6.82247191 41.677666,10.5438202 41.3845741,14.3833066 C40.8570087,21.0581059 35.141717,26.2266453 28.5178404,26.2266453 Z M20.7215962,21.7964687 C21.454326,21.7964687 22.3336016,21.9441413 22.9197854,22.3871589 C24.5317907,23.4208668 26.436888,23.8638844 28.4885312,23.8638844 C34.057277,23.8638844 38.6295104,19.5813804 39.2156942,13.9402889 C39.508786,10.8391653 38.3364185,7.73804173 36.1382294,5.49341894 C33.9400402,3.27833066 31.0091214,2.09695024 27.9023474,2.24462279 C26.1437961,2.39229535 24.5317907,2.835313 23.0663313,3.72134831 C21.7474178,4.60738363 19.9888665,4.60738363 18.6699531,3.72134831 C17.2044936,2.835313 15.4459423,2.24462279 13.833937,2.24462279 C10.7564722,2.09695024 7.82555332,3.27833066 5.598055,5.49341894 C3.39986586,7.70850722 2.37404427,10.8096308 2.52059021,13.9402889 C2.96022803,19.4041734 7.64969819,23.8638844 13.2477532,23.8638844 C15.1528504,23.8638844 17.0579477,23.2731942 18.816499,22.3871589 C19.1095909,22.0918138 19.9888665,21.7964687 20.7215962,21.7964687 Z" id="Shape"></path>
                          <g transform="translate(6.741113, 7.088283)" id="Shape">
                              <path d="M5.92045607,12.0500803 C2.69644534,12.0500803 0.0586183769,9.39197432 0.0586183769,6.14317817 C0.0586183769,2.89438202 2.69644534,0.236276083 5.92045607,0.236276083 C9.1444668,0.236276083 11.7822938,2.89438202 11.7822938,6.14317817 C11.7822938,9.39197432 9.1444668,12.0500803 5.92045607,12.0500803 Z M5.92045607,1.83113965 C3.57572099,1.83113965 1.5240778,3.75088283 1.5240778,6.26131621 C1.5240778,8.7717496 3.42917505,10.6914928 5.92045607,10.6914928 C8.41173709,10.6914928 10.3168343,8.7717496 10.3168343,6.26131621 C10.3168343,3.75088283 8.41173709,1.83113965 5.92045607,1.83113965 Z"></path>
                              <path d="M5.92045607,9.80545746 C3.86881288,9.80545746 2.25680751,8.18105939 2.25680751,6.11364366 C2.25680751,4.04622793 3.86881288,2.42182986 5.92045607,2.42182986 L5.92045607,3.89855538 C4.74808853,3.89855538 3.72226693,4.93226324 3.72226693,6.11364366 C3.72226693,7.29502408 4.74808853,8.32873194 5.92045607,8.32873194 L5.92045607,9.80545746 Z"></path>
                          </g>
                          <g transform="translate(22.568075, 7.088283)" id="Shape">
                              <path d="M6.0963112,12.0500803 C2.87230047,12.0500803 0.234473508,9.39197432 0.234473508,6.14317817 C0.234473508,2.89438202 2.87230047,0.236276083 6.0963112,0.236276083 C9.32032193,0.236276083 11.9581489,2.89438202 11.9581489,6.14317817 C11.9581489,9.39197432 9.32032193,12.0500803 6.0963112,12.0500803 Z M6.0963112,1.83113965 C3.75157612,1.83113965 1.69993293,3.75088283 1.69993293,6.26131621 C1.69993293,8.7717496 3.60503018,10.6914928 6.0963112,10.6914928 C8.58759222,10.6914928 10.4926895,8.7717496 10.4926895,6.26131621 C10.4926895,3.75088283 8.58759222,1.83113965 6.0963112,1.83113965 Z"></path>
                              <path d="M6.0963112,9.80545746 L6.0963112,8.32873194 C7.26867874,8.32873194 8.29450034,7.29502408 8.29450034,6.11364366 C8.29450034,4.93226324 7.26867874,3.89855538 6.0963112,3.89855538 L6.0963112,2.42182986 C8.14795439,2.42182986 9.75995976,4.04622793 9.75995976,6.11364366 C9.75995976,8.18105939 8.14795439,9.80545746 6.0963112,9.80545746 Z"></path>
                          </g>
                          <path d="M12.6615694,21.2057785 C8.26519115,21.2057785 4.71877934,17.6616372 4.71877934,13.2019262 C4.71877934,8.74221509 8.23588196,5.19807384 12.6615694,5.19807384 C17.0872569,5.19807384 20.6043595,8.74221509 20.6043595,13.2019262 C20.5750503,17.6321027 17.0579477,21.2057785 12.6615694,21.2057785 Z M12.6615694,6.70433387 C9.1444668,6.70433387 6.18423877,9.65778491 6.18423877,13.2314607 C6.18423877,16.8051364 9.11515761,19.7585875 12.6615694,19.7585875 C16.2079812,19.7585875 19.1389001,16.8051364 19.1389001,13.2314607 C19.1389001,9.65778491 16.325218,6.70433387 12.6615694,6.70433387 Z" id="Shape"></path>
                          <path d="M28.6643863,21.2057785 C24.268008,21.2057785 20.7215962,17.6616372 20.7215962,13.2019262 C20.7215962,8.74221509 24.2386989,5.19807384 28.6643863,5.19807384 C33.0607646,5.19807384 36.6071764,8.74221509 36.6071764,13.2019262 C36.6071764,17.6616372 33.0607646,21.2057785 28.6643863,21.2057785 Z M28.6643863,6.70433387 C25.1472837,6.70433387 22.1870557,9.65778491 22.1870557,13.2314607 C22.1870557,16.8051364 25.1179745,19.7585875 28.6643863,19.7585875 C32.1814889,19.7585875 35.141717,16.8051364 35.141717,13.2314607 C35.141717,9.65778491 32.3280349,6.70433387 28.6643863,6.70433387 Z" id="Shape"></path>
                      </g>
                      <g id="Group">
                          <path d="M64.9067797,0.579543028 L5.11652542,0.579543028 C2.77754237,0.579543028 1.02330508,2.46305787 1.02330508,4.63634422 L1.02330508,42.8282298 C1.02330508,45.1464019 2.92372881,46.885031 5.11652542,46.885031 L12.7474576,46.885031 L12.7474576,56.7952167 C12.7474576,58.3889601 14.0631356,59.6929319 15.6711864,59.6929319 L53.1826271,59.6929319 C53.3288136,59.6929319 53.3288136,59.6929319 53.475,59.6929319 C54.790678,59.4031604 55.8139831,58.2440743 55.8139831,56.7952167 C55.8139831,55.2014734 54.4983051,53.8975016 52.8902542,53.8975016 L50.4050847,53.8975016 C49.820339,53.8975016 49.2355932,53.4628443 49.2355932,52.7384155 C49.2355932,52.1588725 49.6741525,51.5793295 50.4050847,51.5793295 L59.4978814,51.5793295 C60.0826271,51.5793295 60.6673729,52.0139868 60.6673729,52.7384155 L60.6673729,63.0542814 C60.6673729,63.4889387 61.1059322,63.923596 61.5444915,63.923596 C61.9830508,63.923596 62.4216102,63.4889387 62.4216102,63.0542814 L62.4216102,52.7384155 C62.4216102,51.1446722 61.1059322,49.8407004 59.4978814,49.8407004 L50.4050847,49.8407004 C48.7970339,49.8407004 47.4813559,51.1446722 47.4813559,52.7384155 C47.4813559,54.3321589 48.6508475,55.4912449 50.2588983,55.6361307 L52.8902542,55.6361307 C53.475,55.6361307 54.0597458,56.070788 54.0597458,56.7952167 C54.0597458,57.5196455 53.6211864,57.9543028 52.8902542,57.9543028 L15.6711864,57.9543028 C15.0864407,57.9543028 14.5016949,57.5196455 14.5016949,56.7952167 L14.5016949,46.9140081 L27.9800847,46.9140081 L26.2258475,55.6361307 L26.2258475,55.7810164 L26.2258475,55.9259022 L26.2258475,56.070788 L26.2258475,56.2156737 C26.2258475,56.2156737 26.3720339,56.2156737 26.3720339,56.3605595 L26.5182203,56.3605595 L26.6644068,56.3605595 L26.8105932,56.3605595 L42.6279661,56.3605595 C43.0665254,56.3605595 43.5050847,55.9259022 43.5050847,55.4912449 C43.5050847,55.3463592 43.5050847,55.3463592 43.5050847,55.2014734 L41.7508475,46.4793508 L64.6144068,46.4793508 C66.9533898,46.4793508 68.7076271,44.595836 68.7076271,42.4225496 L68.7076271,4.66532138 C69,2.31817211 67.0995763,0.579543028 64.9067797,0.579543028 Z M28.1262712,55.0565877 L29.734322,46.9140081 L40.1427966,46.9140081 L41.7508475,55.0565877 L28.1262712,55.0565877 Z M67.2457627,42.8572069 C67.2457627,44.1611787 66.2224576,45.175379 64.9067797,45.175379 L5.11652542,45.175379 C3.80084746,45.175379 2.77754237,44.1611787 2.77754237,42.8572069 L2.77754237,4.66532138 C2.77754237,3.36134956 3.80084746,2.34714926 5.11652542,2.34714926 L64.7605932,2.34714926 C66.0762712,2.34714926 67.0995763,3.36134956 67.0995763,4.66532138 L67.0995763,42.8572069 L67.2457627,42.8572069 Z" id="Shape"></path>
                          <path d="M61.2521186,64.3582533 C60.5211864,64.3582533 59.9364407,63.7787102 59.9364407,63.0542814 L59.9364407,52.7384155 C59.9364407,52.3037583 59.6440678,52.0139868 59.2055085,52.0139868 L50.1127119,52.0139868 C49.6741525,52.0139868 49.3817797,52.3037583 49.3817797,52.7384155 C49.3817797,53.1730728 49.6741525,53.4628443 50.1127119,53.4628443 L52.5978814,53.4628443 C54.3521186,53.4628443 55.8139831,54.9117019 55.8139831,56.650331 C55.8139831,58.2440743 54.6444915,59.5480461 53.0364407,59.8378176 C52.8902542,59.8378176 52.8902542,59.8378176 52.7440678,59.8378176 L15.2326271,59.8378176 C13.4783898,59.8378176 12.0165254,58.3889601 12.0165254,56.650331 L12.0165254,47.0588939 L4.6779661,47.0588939 C2.19279661,47.0588939 0.146186441,45.0304933 0.146186441,42.5674354 L0.146186441,4.66532138 C0.146186441,2.20226351 2.19279661,0.173862908 4.6779661,0.173862908 L64.3220339,0.173862908 C66.8072034,0.173862908 68.8538136,2.20226351 68.8538136,4.66532138 L68.8538136,42.8572069 C68.8538136,45.3202648 66.8072034,47.3486654 64.3220339,47.3486654 L41.8970339,47.3486654 L43.6512712,55.6361307 C43.6512712,55.7810164 43.6512712,55.7810164 43.6512712,55.9259022 C43.6512712,56.650331 43.0665254,57.229874 42.3355932,57.229874 L26.8105932,57.229874 C26.6644068,57.229874 26.6644068,57.229874 26.5182203,57.229874 C26.3720339,57.229874 26.3720339,57.229874 26.2258475,57.229874 C26.079661,57.229874 26.079661,57.0849883 26.079661,57.0849883 C25.9334746,57.0849883 25.9334746,56.9401025 25.9334746,56.9401025 L25.9334746,56.7952167 L25.7872881,56.650331 C25.7872881,56.650331 25.7872881,56.5054452 25.6411017,56.5054452 C25.6411017,56.3605595 25.6411017,56.3605595 25.4949153,56.2156737 C25.4949153,56.070788 25.4949153,56.070788 25.4949153,55.9259022 C25.4949153,55.7810164 25.4949153,55.7810164 25.4949153,55.6361307 L27.2491525,47.3486654 L14.6478814,47.3486654 L14.6478814,56.9401025 C14.6478814,57.3747598 14.9402542,57.6645313 15.3788136,57.6645313 L52.5978814,57.6645313 C53.0364407,57.6645313 53.3288136,57.3747598 53.3288136,56.9401025 C53.3288136,56.5054452 53.0364407,56.2156737 52.5978814,56.2156737 L49.9665254,56.2156737 C48.0661017,56.070788 46.7504237,54.7668161 46.7504237,53.0281871 C46.7504237,51.289558 48.2122881,49.8407004 49.9665254,49.8407004 L59.059322,49.8407004 C60.8135593,49.8407004 62.2754237,51.289558 62.2754237,53.0281871 L62.2754237,63.344053 C62.5677966,63.8946188 61.9830508,64.3582533 61.2521186,64.3582533 Z M50.1127119,51.2605808 L59.2055085,51.2605808 C60.0826271,51.2605808 60.6673729,51.9850096 60.6673729,52.7094384 L60.6673729,63.0253043 C60.6673729,63.3150758 60.9597458,63.6048473 61.2521186,63.6048473 C61.5444915,63.6048473 61.8368644,63.3150758 61.8368644,63.0253043 L61.8368644,52.7384155 C61.8368644,51.289558 60.6673729,50.2753577 59.3516949,50.2753577 L50.2588983,50.2753577 C48.7970339,50.2753577 47.7737288,51.4344437 47.7737288,52.7384155 C47.7737288,54.0423874 48.7970339,55.2014734 50.2588983,55.2014734 L52.8902542,55.2014734 C53.7673729,55.2014734 54.3521186,55.9259022 54.3521186,56.650331 C54.3521186,57.3747598 53.6211864,58.0991886 52.8902542,58.0991886 L15.6711864,58.0991886 C14.7940678,58.0991886 14.209322,57.3747598 14.209322,56.650331 L14.209322,46.3344651 L28.4186441,46.3344651 L26.5182203,55.4912449 L26.079661,55.6361307 L26.5182203,55.6361307 L26.6644068,55.9259022 L26.6644068,56.070788 L26.8105932,56.070788 L26.9567797,56.070788 L42.7741525,56.070788 C43.0665254,56.070788 43.3588983,55.7810164 43.3588983,55.4912449 L43.3588983,55.3463592 L41.4584746,46.1895793 L64.7605932,46.1895793 C66.8072034,46.1895793 68.5614407,44.4509502 68.5614407,42.4225496 L68.5614407,4.66532138 C68.5614407,2.63692078 66.8072034,0.898291693 64.7605932,0.898291693 L4.82415254,0.898291693 C2.77754237,0.898291693 1.02330508,2.63692078 1.02330508,4.66532138 L1.02330508,42.8572069 C1.02330508,44.8856075 2.77754237,46.6242366 4.82415254,46.6242366 L12.8936441,46.6242366 L12.8936441,56.9401025 C12.8936441,58.3889601 14.0631356,59.4031604 15.3788136,59.4031604 L52.8902542,59.4031604 L53.0364407,59.4031604 C54.3521186,59.1133889 55.2292373,58.0991886 55.2292373,56.9401025 C55.2292373,55.4912449 54.0597458,54.4770446 52.7440678,54.4770446 L50.2588983,54.4770446 C49.3817797,54.4770446 48.7970339,53.7526158 48.7970339,53.0281871 C48.7970339,52.3037583 49.2355932,51.2605808 50.1127119,51.2605808 Z M42.0432203,55.3463592 L27.395339,55.3463592 L29.1495763,46.4793508 L40.1427966,46.4793508 L42.0432203,55.3463592 Z M28.2724576,54.6219304 L41.0199153,54.6219304 L39.5580508,47.2037796 L29.734322,47.2037796 L28.2724576,54.6219304 Z M64.6144068,45.6100363 L4.82415254,45.6100363 C3.36228814,45.6100363 2.04661017,44.4509502 2.04661017,42.8572069 L2.04661017,4.66532138 C2.04661017,3.21646381 3.21610169,1.91249199 4.82415254,1.91249199 L64.4682203,1.91249199 C65.9300847,1.91249199 67.2457627,3.07157805 67.2457627,4.66532138 L67.2457627,42.8572069 C67.2457627,44.3060645 66.0762712,45.6100363 64.6144068,45.6100363 Z M4.82415254,2.60794363 C3.65466102,2.60794363 2.77754237,3.47725817 2.77754237,4.63634422 L2.77754237,42.8282298 C2.77754237,43.9873158 3.65466102,44.8566304 4.82415254,44.8566304 L64.4682203,44.8566304 C65.6377119,44.8566304 66.5148305,43.9873158 66.5148305,42.8282298 L66.5148305,4.66532138 C66.5148305,3.50623532 65.6377119,2.63692078 64.4682203,2.63692078 L4.82415254,2.63692078 L4.82415254,2.60794363 Z" id="Shape"></path>
                      </g>
                      <g id="Group" transform="translate(3.285714, 3.285714)">
                          <path d="M61.1096579,0.60620155 L1.46545942,0.60620155 C1.0258216,0.60620155 0.586183769,1.03920266 0.586183769,1.47220377 L0.586183769,35.7658915 C0.586183769,36.1988926 1.0258216,36.6318937 1.46545942,36.6318937 L61.1096579,36.6318937 C61.5492958,36.6318937 61.9889336,36.1988926 61.9889336,35.7658915 L61.9889336,1.47220377 C61.9889336,1.03920266 61.5492958,0.60620155 61.1096579,0.60620155 Z M60.2303823,35.0153562 L2.34473508,35.0153562 L2.34473508,2.33820598 L60.2303823,2.33820598 L60.2303823,35.0153562 Z" id="Shape"></path>
                          <path d="M61.1096579,37.0648948 L1.46545942,37.0648948 C0.732729712,37.0648948 0.146545942,36.48756 0.146545942,35.7658915 L0.146545942,1.47220377 C0.146545942,0.750535253 0.732729712,0.173200443 1.46545942,0.173200443 L61.1096579,0.173200443 C61.8423877,0.173200443 62.4285714,0.750535253 62.4285714,1.47220377 L62.4285714,35.7658915 C62.4285714,36.6318937 61.8423877,37.0648948 61.1096579,37.0648948 Z M1.46545942,1.03920266 C1.17236754,1.03920266 0.879275654,1.32787006 0.879275654,1.61653747 L0.879275654,35.9102252 C0.879275654,36.1988926 1.17236754,36.48756 1.46545942,36.48756 L61.1096579,36.48756 C61.4027498,36.48756 61.6958417,36.1988926 61.6958417,35.9102252 L61.6958417,1.47220377 C61.6958417,1.18353636 61.4027498,0.894868955 61.1096579,0.894868955 L1.46545942,0.894868955 L1.46545942,1.03920266 Z M60.5234742,35.3040236 L1.90509725,35.3040236 L1.90509725,2.04953858 L60.5234742,2.04953858 L60.5234742,35.3040236 Z M2.63782696,34.5823551 L59.7907445,34.5823551 L59.7907445,2.77120709 L2.63782696,2.77120709 L2.63782696,34.5823551 Z" id="Shape"></path>
                      </g>
                      <g id="Group" transform="translate(29.571429, 41.619048)">
                          <path d="M9.45363409,0.788571429 L1.35463659,0.788571429 C0.922305764,0.788571429 0.489974937,1.28142857 0.489974937,1.77428571 C0.489974937,2.26714286 0.922305764,2.76 1.35463659,2.76 L9.45363409,2.76 C9.88596491,2.76 10.3182957,2.26714286 10.3182957,1.77428571 C10.3182957,1.28142857 9.88596491,0.788571429 9.45363409,0.788571429 Z" id="Shape"></path>
                          <path d="M9.45363409,3.25285714 L1.35463659,3.25285714 C0.634085213,3.25285714 0.0576441103,2.59571429 0.0576441103,1.77428571 C0.0576441103,0.952857143 0.634085213,0.295714286 1.35463659,0.295714286 L9.45363409,0.295714286 C10.1741855,0.295714286 10.7506266,0.952857143 10.7506266,1.77428571 C10.6065163,2.59571429 10.1741855,3.25285714 9.45363409,3.25285714 Z M1.35463659,1.28142857 C1.06641604,1.28142857 0.778195489,1.61 0.778195489,1.93857143 C0.778195489,2.26714286 1.06641604,2.59571429 1.35463659,2.59571429 L9.45363409,2.59571429 C9.74185464,2.59571429 10.0300752,2.26714286 10.0300752,1.93857143 C10.0300752,1.61 9.74185464,1.28142857 9.45363409,1.28142857 L1.35463659,1.28142857 Z" id="Shape"></path>
                      </g>
                      <g id="Group" transform="translate(53.666667, 63.523810)">
                          <path d="M8.67924528,0.594557823 L6.65408805,0.594557823 C3.32704403,0.594557823 0.72327044,3.56734694 0.72327044,7.16442177 L0.72327044,13.5856463 C0.72327044,17.1529932 3.32704403,20.1555102 6.65408805,20.1555102 L8.67924528,20.1555102 C12.0062893,20.1555102 14.6100629,17.1827211 14.6100629,13.5856463 L14.6100629,7.16442177 C14.6100629,3.59707483 11.8616352,0.594557823 8.67924528,0.594557823 Z M12.8742138,13.5856463 C12.8742138,16.2611565 10.9937107,18.3421088 8.67924528,18.3421088 L6.65408805,18.3421088 C4.33962264,18.3421088 2.4591195,16.2611565 2.4591195,13.5856463 L2.4591195,7.16442177 C2.4591195,4.48891156 4.33962264,2.40795918 6.65408805,2.40795918 L8.67924528,2.40795918 C10.9937107,2.40795918 12.8742138,4.48891156 12.8742138,7.16442177 L12.8742138,13.5856463 Z" id="Shape"></path>
                          <path d="M8.67924528,20.5717007 L6.65408805,20.5717007 C3.18238994,20.5717007 0.260377358,17.4502721 0.260377358,13.5559184 L0.260377358,7.13469388 C0.260377358,3.27006803 3.15345912,0.118911565 6.65408805,0.118911565 L8.67924528,0.118911565 C12.1509434,0.118911565 15.072956,3.24034014 15.072956,7.13469388 L15.072956,13.5559184 C14.8993711,17.4502721 12.1509434,20.5717007 8.67924528,20.5717007 Z M6.62515723,1.07020408 C3.58742138,1.07020408 0.983647799,3.89435374 0.983647799,7.31306122 L0.983647799,13.5559184 C0.983647799,16.9746259 3.4427673,19.7987755 6.62515723,19.7987755 L8.65031447,19.7987755 C11.6880503,19.7987755 14.2918239,16.9746259 14.2918239,13.5559184 L14.2918239,7.13469388 C14.2918239,3.71598639 11.8327044,0.891836735 8.65031447,0.891836735 L6.62515723,0.891836735 L6.62515723,1.07020408 Z M8.67924528,18.7880272 L6.65408805,18.7880272 C4.19496855,18.7880272 2.02515723,16.4097959 2.02515723,13.5856463 L2.02515723,7.16442177 C2.02515723,4.34027211 4.05031447,1.96204082 6.65408805,1.96204082 L8.67924528,1.96204082 C11.1383648,1.96204082 13.3081761,4.34027211 13.3081761,7.16442177 L13.3081761,13.5856463 C13.163522,16.4097959 11.1383648,18.7880272 8.67924528,18.7880272 Z M6.62515723,2.85387755 C4.45534591,2.85387755 2.71949686,4.78619048 2.71949686,7.31306122 L2.71949686,13.5559184 C2.71949686,15.9341497 4.45534591,18.015102 6.62515723,18.015102 L8.65031447,18.015102 C10.8201258,18.015102 12.5559748,16.0827891 12.5559748,13.5559184 L12.5559748,7.13469388 C12.5559748,4.75646259 10.8201258,2.6755102 8.65031447,2.6755102 L6.62515723,2.6755102 L6.62515723,2.85387755 Z" id="Shape"></path>
                      </g>
                      <g id="Group" transform="translate(60.238095, 66.809524)">
                          <path d="M1.0952381,0.627272727 C0.73015873,0.627272727 0.365079365,1.07532468 0.365079365,1.52337662 L0.365079365,5.25714286 C0.365079365,5.70519481 0.73015873,6.15324675 1.0952381,6.15324675 C1.46031746,6.15324675 1.82539683,5.70519481 1.82539683,5.25714286 L1.82539683,1.52337662 C1.82539683,0.925974026 1.46031746,0.627272727 1.0952381,0.627272727 Z" id="Shape"></path>
                          <path d="M1.0952381,6.45194805 C0.486772487,6.45194805 0,5.85454545 0,5.10779221 L0,1.37402597 C0,0.627272727 0.486772487,0.0298701299 1.0952381,0.0298701299 C1.7037037,0.0298701299 2.19047619,0.627272727 2.19047619,1.37402597 L2.19047619,5.10779221 C2.06878307,6.0038961 1.58201058,6.45194805 1.0952381,6.45194805 Z M1.0952381,0.925974026 C0.851851852,0.925974026 0.608465608,1.22467532 0.608465608,1.52337662 L0.608465608,5.25714286 C0.608465608,5.55584416 0.851851852,5.85454545 1.0952381,5.85454545 C1.33862434,5.85454545 1.58201058,5.55584416 1.58201058,5.25714286 L1.58201058,1.52337662 C1.46031746,1.22467532 1.21693122,0.925974026 1.0952381,0.925974026 Z" id="Shape"></path>
                      </g>
                      <g id="Group" transform="translate(7.666667, 64.619048)">
                          <path d="M2.50340136,0.404395604 L2.03401361,0.404395604 C1.25170068,0.404395604 0.62585034,0.90989011 0.62585034,1.54175824 C0.62585034,2.17362637 1.25170068,2.67912088 2.03401361,2.67912088 L2.50340136,2.67912088 C3.28571429,2.67912088 3.91156463,2.17362637 3.91156463,1.54175824 C3.94285714,0.90989011 3.28571429,0.404395604 2.50340136,0.404395604 Z" id="Shape"></path>
                          <path d="M2.50340136,3.05824176 L2.03401361,3.05824176 C1.0952381,3.05824176 0.156462585,2.42637363 0.156462585,1.54175824 C0.156462585,0.657142857 0.93877551,0.0252747253 2.03401361,0.0252747253 L2.50340136,0.0252747253 C3.44217687,0.0252747253 4.38095238,0.657142857 4.38095238,1.54175824 C4.38095238,2.42637363 3.62993197,3.05824176 2.50340136,3.05824176 Z M2.03401361,0.783516484 C1.40816327,0.783516484 0.93877551,1.16263736 0.93877551,1.66813187 C0.93877551,2.17362637 1.40816327,2.55274725 2.03401361,2.55274725 L2.50340136,2.55274725 C3.1292517,2.55274725 3.59863946,2.17362637 3.59863946,1.66813187 C3.59863946,1.16263736 3.1292517,0.783516484 2.50340136,0.783516484 L2.03401361,0.783516484 Z" id="Shape"></path>
                      </g>
                      <g id="Group" transform="translate(12.047619, 64.619048)">
                          <path d="M2.36571429,0.404395604 L1.92761905,0.404395604 C1.19746032,0.404395604 0.613333333,0.90989011 0.613333333,1.54175824 C0.613333333,2.17362637 1.19746032,2.67912088 1.92761905,2.67912088 L2.36571429,2.67912088 C3.09587302,2.67912088 3.68,2.17362637 3.68,1.54175824 C3.68,0.90989011 3.09587302,0.404395604 2.36571429,0.404395604 Z" id="Shape"></path>
                          <path d="M2.36571429,3.05824176 L1.92761905,3.05824176 C1.05142857,3.05824176 0.175238095,2.42637363 0.175238095,1.54175824 C0.175238095,0.657142857 0.905396825,0.0252747253 1.92761905,0.0252747253 L2.36571429,0.0252747253 C3.24190476,0.0252747253 4.11809524,0.657142857 4.11809524,1.54175824 C4.11809524,2.42637363 3.38793651,3.05824176 2.36571429,3.05824176 Z M1.92761905,0.783516484 C1.34349206,0.783516484 0.905396825,1.16263736 0.905396825,1.66813187 C0.905396825,2.17362637 1.34349206,2.55274725 1.92761905,2.55274725 L2.36571429,2.55274725 C2.94984127,2.55274725 3.38793651,2.17362637 3.38793651,1.66813187 C3.38793651,1.16263736 2.94984127,0.783516484 2.36571429,0.783516484 L1.92761905,0.783516484 Z" id="Shape"></path>
                      </g>
                      <g id="Group" transform="translate(16.428571, 64.619048)">
                          <path d="M2.36571429,0.404395604 L1.92761905,0.404395604 C1.19746032,0.404395604 0.613333333,0.90989011 0.613333333,1.54175824 C0.613333333,2.17362637 1.19746032,2.67912088 1.92761905,2.67912088 L2.36571429,2.67912088 C3.09587302,2.67912088 3.68,2.17362637 3.68,1.54175824 C3.68,0.90989011 3.09587302,0.404395604 2.36571429,0.404395604 Z" id="Shape"></path>
                          <path d="M2.36571429,3.05824176 L1.92761905,3.05824176 C1.05142857,3.05824176 0.175238095,2.42637363 0.175238095,1.54175824 C0.175238095,0.657142857 0.905396825,0.0252747253 1.92761905,0.0252747253 L2.36571429,0.0252747253 C3.24190476,0.0252747253 4.11809524,0.657142857 4.11809524,1.54175824 C4.11809524,2.42637363 3.38793651,3.05824176 2.36571429,3.05824176 Z M1.92761905,0.783516484 C1.34349206,0.783516484 0.905396825,1.16263736 0.905396825,1.66813187 C0.905396825,2.17362637 1.34349206,2.55274725 1.92761905,2.55274725 L2.36571429,2.55274725 C2.94984127,2.55274725 3.38793651,2.17362637 3.38793651,1.66813187 C3.38793651,1.16263736 2.94984127,0.783516484 2.36571429,0.783516484 L1.92761905,0.783516484 Z" id="Shape"></path>
                      </g>
                      <g id="Group" transform="translate(20.809524, 64.619048)">
                          <path d="M2.36571429,0.404395604 L1.92761905,0.404395604 C1.19746032,0.404395604 0.613333333,0.90989011 0.613333333,1.54175824 C0.613333333,2.17362637 1.19746032,2.67912088 1.92761905,2.67912088 L2.36571429,2.67912088 C3.09587302,2.67912088 3.68,2.17362637 3.68,1.54175824 C3.70920635,0.90989011 3.12507937,0.404395604 2.36571429,0.404395604 Z" id="Shape"></path>
                          <path d="M2.36571429,3.05824176 L1.92761905,3.05824176 C1.05142857,3.05824176 0.175238095,2.42637363 0.175238095,1.54175824 C0.175238095,0.657142857 0.905396825,0.0252747253 1.92761905,0.0252747253 L2.36571429,0.0252747253 C3.24190476,0.0252747253 4.11809524,0.657142857 4.11809524,1.54175824 C4.11809524,2.42637363 3.41714286,3.05824176 2.36571429,3.05824176 Z M1.92761905,0.783516484 C1.34349206,0.783516484 0.905396825,1.16263736 0.905396825,1.66813187 C0.905396825,2.17362637 1.34349206,2.55274725 1.92761905,2.55274725 L2.36571429,2.55274725 C2.94984127,2.55274725 3.38793651,2.17362637 3.38793651,1.66813187 C3.38793651,1.16263736 2.94984127,0.783516484 2.36571429,0.783516484 L1.92761905,0.783516484 Z" id="Shape"></path>
                      </g>
                      <g id="Group" transform="translate(25.190476, 64.619048)">
                          <path d="M2.39492063,0.404395604 L1.9568254,0.404395604 C1.22666667,0.404395604 0.642539683,0.90989011 0.642539683,1.54175824 C0.642539683,2.17362637 1.22666667,2.67912088 1.9568254,2.67912088 L2.39492063,2.67912088 C3.12507937,2.67912088 3.70920635,2.17362637 3.70920635,1.54175824 C3.70920635,0.90989011 3.12507937,0.404395604 2.39492063,0.404395604 Z" id="Shape"></path>
                          <path d="M2.39492063,3.05824176 L1.9568254,3.05824176 C1.08063492,3.05824176 0.204444444,2.42637363 0.204444444,1.54175824 C0.204444444,0.657142857 0.934603175,0.0252747253 1.9568254,0.0252747253 L2.39492063,0.0252747253 C3.27111111,0.0252747253 4.14730159,0.657142857 4.14730159,1.54175824 C4.14730159,2.42637363 3.41714286,3.05824176 2.39492063,3.05824176 Z M1.9568254,0.783516484 C1.37269841,0.783516484 0.934603175,1.16263736 0.934603175,1.66813187 C0.934603175,2.17362637 1.37269841,2.55274725 1.9568254,2.55274725 L2.39492063,2.55274725 C2.97904762,2.55274725 3.41714286,2.17362637 3.41714286,1.66813187 C3.41714286,1.16263736 2.97904762,0.783516484 2.39492063,0.783516484 L1.9568254,0.783516484 Z" id="Shape"></path>
                      </g>
                      <g id="Group" transform="translate(29.571429, 64.619048)">
                          <path d="M2.56598639,0.404395604 L2.09659864,0.404395604 C1.31428571,0.404395604 0.688435374,0.90989011 0.688435374,1.54175824 C0.688435374,2.17362637 1.31428571,2.67912088 2.09659864,2.67912088 L2.56598639,2.67912088 C3.34829932,2.67912088 3.97414966,2.17362637 3.97414966,1.54175824 C3.97414966,0.90989011 3.34829932,0.404395604 2.56598639,0.404395604 Z" id="Shape"></path>
                          <path d="M2.56598639,3.05824176 L2.09659864,3.05824176 C1.15782313,3.05824176 0.219047619,2.42637363 0.219047619,1.54175824 C0.219047619,0.657142857 1.00136054,0.0252747253 2.09659864,0.0252747253 L2.56598639,0.0252747253 C3.03537415,0.0252747253 3.5047619,0.151648352 3.81768707,0.404395604 C4.13061224,0.657142857 4.28707483,1.03626374 4.28707483,1.41538462 C4.44353741,2.42637363 3.66122449,3.05824176 2.56598639,3.05824176 Z M2.09659864,0.783516484 C1.4707483,0.783516484 1.00136054,1.16263736 1.00136054,1.66813187 C1.00136054,2.17362637 1.4707483,2.55274725 2.09659864,2.55274725 L2.56598639,2.55274725 C3.19183673,2.55274725 3.66122449,2.17362637 3.66122449,1.66813187 C3.66122449,1.41538462 3.5047619,1.28901099 3.34829932,1.03626374 C3.19183673,0.90989011 2.87891156,0.783516484 2.56598639,0.783516484 L2.09659864,0.783516484 Z" id="Shape"></path>
                      </g>
                      <g id="Group" transform="translate(33.952381, 64.619048)">
                          <path d="M2.42412698,0.404395604 L1.98603175,0.404395604 C1.25587302,0.404395604 0.671746032,0.90989011 0.671746032,1.54175824 C0.671746032,2.17362637 1.25587302,2.67912088 1.98603175,2.67912088 L2.42412698,2.67912088 C3.15428571,2.67912088 3.7384127,2.17362637 3.7384127,1.54175824 C3.7384127,0.90989011 3.15428571,0.404395604 2.42412698,0.404395604 Z" id="Shape"></path>
                          <path d="M2.42412698,3.05824176 L1.98603175,3.05824176 C1.10984127,3.05824176 0.233650794,2.42637363 0.233650794,1.54175824 C0.233650794,0.657142857 0.963809524,0.0252747253 1.98603175,0.0252747253 L2.42412698,0.0252747253 C3.30031746,0.0252747253 4.17650794,0.657142857 4.17650794,1.54175824 C4.17650794,2.42637363 3.44634921,3.05824176 2.42412698,3.05824176 Z M1.98603175,0.783516484 C1.40190476,0.783516484 0.963809524,1.16263736 0.963809524,1.66813187 C0.963809524,2.17362637 1.40190476,2.55274725 1.98603175,2.55274725 L2.42412698,2.55274725 C3.00825397,2.55274725 3.44634921,2.17362637 3.44634921,1.66813187 C3.44634921,1.16263736 3.00825397,0.783516484 2.42412698,0.783516484 L1.98603175,0.783516484 Z" id="Shape"></path>
                      </g>
                      <g id="Group" transform="translate(38.333333, 64.619048)">
                          <path d="M2.42412698,0.404395604 L1.98603175,0.404395604 C1.25587302,0.404395604 0.671746032,0.90989011 0.671746032,1.54175824 C0.671746032,2.17362637 1.25587302,2.67912088 1.98603175,2.67912088 L2.42412698,2.67912088 C3.15428571,2.67912088 3.7384127,2.17362637 3.7384127,1.54175824 C3.7384127,0.90989011 3.15428571,0.404395604 2.42412698,0.404395604 Z" id="Shape"></path>
                          <path d="M2.42412698,3.05824176 L1.98603175,3.05824176 C1.10984127,3.05824176 0.233650794,2.42637363 0.233650794,1.54175824 C0.233650794,0.657142857 0.963809524,0.0252747253 1.98603175,0.0252747253 L2.42412698,0.0252747253 C3.30031746,0.0252747253 4.17650794,0.657142857 4.17650794,1.54175824 C4.17650794,2.42637363 3.44634921,3.05824176 2.42412698,3.05824176 Z M1.98603175,0.783516484 C1.40190476,0.783516484 0.963809524,1.16263736 0.963809524,1.66813187 C0.963809524,2.17362637 1.40190476,2.55274725 1.98603175,2.55274725 L2.42412698,2.55274725 C3.00825397,2.55274725 3.44634921,2.17362637 3.44634921,1.66813187 C3.44634921,1.16263736 3.00825397,0.783516484 2.42412698,0.783516484 L1.98603175,0.783516484 Z" id="Shape"></path>
                      </g>
                      <g id="Group" transform="translate(42.714286, 64.619048)">
                          <path d="M2.42412698,0.404395604 L1.98603175,0.404395604 C1.25587302,0.404395604 0.671746032,0.90989011 0.671746032,1.54175824 C0.671746032,2.17362637 1.25587302,2.67912088 1.98603175,2.67912088 L2.42412698,2.67912088 C3.15428571,2.67912088 3.7384127,2.17362637 3.7384127,1.54175824 C3.7384127,0.90989011 3.15428571,0.404395604 2.42412698,0.404395604 Z" id="Shape"></path>
                          <path d="M2.42412698,3.05824176 L1.98603175,3.05824176 C1.10984127,3.05824176 0.233650794,2.42637363 0.233650794,1.54175824 C0.233650794,0.657142857 0.963809524,0.0252747253 1.98603175,0.0252747253 L2.42412698,0.0252747253 C3.30031746,0.0252747253 4.17650794,0.657142857 4.17650794,1.54175824 C4.17650794,2.42637363 3.44634921,3.05824176 2.42412698,3.05824176 Z M1.98603175,0.783516484 C1.40190476,0.783516484 0.963809524,1.16263736 0.963809524,1.66813187 C0.963809524,2.17362637 1.40190476,2.55274725 1.98603175,2.55274725 L2.42412698,2.55274725 C3.00825397,2.55274725 3.44634921,2.17362637 3.44634921,1.66813187 C3.44634921,1.16263736 3.00825397,0.783516484 2.42412698,0.783516484 L1.98603175,0.783516484 Z" id="Shape"></path>
                      </g>
                      <g id="Group" transform="translate(47.095238, 64.619048)">
                          <path d="M3.76761905,1.54175824 C3.76761905,0.90989011 3.18349206,0.404395604 2.45333333,0.404395604 L2.0152381,0.404395604 C1.28507937,0.404395604 0.700952381,0.90989011 0.700952381,1.54175824 C0.700952381,2.17362637 1.28507937,2.67912088 2.0152381,2.67912088 L2.45333333,2.67912088 C3.18349206,2.67912088 3.76761905,2.17362637 3.76761905,1.54175824 Z" id="Shape"></path>
                          <path d="M2.45333333,3.05824176 L2.0152381,3.05824176 C1.13904762,3.05824176 0.262857143,2.42637363 0.262857143,1.54175824 C0.262857143,0.657142857 0.993015873,0.0252747253 2.0152381,0.0252747253 L2.45333333,0.0252747253 C3.32952381,0.0252747253 4.20571429,0.657142857 4.20571429,1.54175824 C4.20571429,2.42637363 3.47555556,3.05824176 2.45333333,3.05824176 Z M2.0152381,0.783516484 C1.43111111,0.783516484 0.993015873,1.16263736 0.993015873,1.66813187 C0.993015873,2.17362637 1.43111111,2.55274725 2.0152381,2.55274725 L2.45333333,2.55274725 C3.03746032,2.55274725 3.47555556,2.17362637 3.47555556,1.66813187 C3.47555556,1.16263736 3.03746032,0.783516484 2.45333333,0.783516484 L2.0152381,0.783516484 Z" id="Shape"></path>
                      </g>
                      <g id="Group" transform="translate(6.571429, 67.904762)">
                          <path d="M1.72108844,0.404395604 C0.93877551,0.404395604 0.31292517,0.90989011 0.31292517,1.54175824 C0.31292517,2.17362637 0.93877551,2.67912088 1.72108844,2.67912088 L2.19047619,2.67912088 C2.97278912,2.67912088 3.59863946,2.17362637 3.59863946,1.54175824 C3.59863946,0.90989011 2.97278912,0.404395604 2.19047619,0.404395604 L1.72108844,0.404395604 Z" id="Shape"></path>
                          <path d="M2.34693878,3.05824176 L1.87755102,3.05824176 C0.93877551,3.05824176 0,2.42637363 0,1.54175824 C0,0.657142857 0.782312925,0.0252747253 1.87755102,0.0252747253 L2.34693878,0.0252747253 C3.28571429,0.0252747253 4.2244898,0.657142857 4.2244898,1.54175824 C4.2244898,2.42637363 3.28571429,3.05824176 2.34693878,3.05824176 Z M1.72108844,0.783516484 C1.0952381,0.783516484 0.62585034,1.16263736 0.62585034,1.66813187 C0.62585034,2.17362637 1.0952381,2.55274725 1.72108844,2.55274725 L2.19047619,2.55274725 C2.81632653,2.55274725 3.28571429,2.17362637 3.28571429,1.66813187 C3.28571429,1.16263736 2.81632653,0.783516484 2.19047619,0.783516484 L1.72108844,0.783516484 Z" id="Shape"></path>
                      </g>
                      <g id="Group" transform="translate(10.952381, 67.904762)">
                          <path d="M1.75238095,0.404395604 C0.970068027,0.404395604 0.344217687,0.90989011 0.344217687,1.54175824 C0.344217687,2.17362637 0.970068027,2.67912088 1.75238095,2.67912088 L2.22176871,2.67912088 C3.00408163,2.67912088 3.62993197,2.17362637 3.62993197,1.54175824 C3.62993197,0.90989011 3.00408163,0.404395604 2.22176871,0.404395604 L1.75238095,0.404395604 Z" id="Shape"></path>
                          <path d="M2.37823129,3.05824176 L1.90884354,3.05824176 C0.970068027,3.05824176 0.031292517,2.42637363 0.031292517,1.54175824 C0.031292517,0.657142857 0.813605442,0.0252747253 1.90884354,0.0252747253 L2.37823129,0.0252747253 C3.3170068,0.0252747253 4.25578231,0.657142857 4.25578231,1.54175824 C4.25578231,2.42637363 3.3170068,3.05824176 2.37823129,3.05824176 Z M1.75238095,0.783516484 C1.12653061,0.783516484 0.657142857,1.16263736 0.657142857,1.66813187 C0.657142857,2.17362637 1.12653061,2.55274725 1.75238095,2.55274725 L2.22176871,2.55274725 C2.84761905,2.55274725 3.3170068,2.17362637 3.3170068,1.66813187 C3.3170068,1.16263736 2.84761905,0.783516484 2.22176871,0.783516484 L1.75238095,0.783516484 Z" id="Shape"></path>
                      </g>
                      <g id="Group" transform="translate(15.333333, 67.904762)">
                          <path d="M1.75238095,0.404395604 C0.970068027,0.404395604 0.344217687,0.90989011 0.344217687,1.54175824 C0.344217687,2.17362637 0.970068027,2.67912088 1.75238095,2.67912088 L2.22176871,2.67912088 C3.00408163,2.67912088 3.62993197,2.17362637 3.62993197,1.54175824 C3.62993197,0.90989011 3.00408163,0.404395604 2.22176871,0.404395604 L1.75238095,0.404395604 Z" id="Shape"></path>
                          <path d="M2.37823129,3.05824176 L1.90884354,3.05824176 C0.970068027,3.05824176 0.031292517,2.42637363 0.031292517,1.54175824 C0.031292517,0.657142857 0.813605442,0.0252747253 1.90884354,0.0252747253 L2.37823129,0.0252747253 C3.3170068,0.0252747253 4.25578231,0.657142857 4.25578231,1.54175824 C4.25578231,2.42637363 3.3170068,3.05824176 2.37823129,3.05824176 Z M1.75238095,0.783516484 C1.12653061,0.783516484 0.657142857,1.16263736 0.657142857,1.66813187 C0.657142857,2.17362637 1.12653061,2.55274725 1.75238095,2.55274725 L2.22176871,2.55274725 C2.84761905,2.55274725 3.3170068,2.17362637 3.3170068,1.66813187 C3.3170068,1.16263736 2.84761905,0.783516484 2.22176871,0.783516484 L1.75238095,0.783516484 Z" id="Shape"></path>
                      </g>
                      <g id="Group" transform="translate(19.714286, 67.904762)">
                          <path d="M1.92761905,0.404395604 C1.19746032,0.404395604 0.613333333,0.90989011 0.613333333,1.54175824 C0.613333333,2.17362637 1.19746032,2.67912088 1.92761905,2.67912088 L2.36571429,2.67912088 C3.09587302,2.67912088 3.68,2.17362637 3.68,1.54175824 C3.68,0.90989011 3.09587302,0.404395604 2.36571429,0.404395604 L1.92761905,0.404395604 Z" id="Shape"></path>
                          <path d="M2.36571429,3.05824176 L1.92761905,3.05824176 C1.05142857,3.05824176 0.175238095,2.42637363 0.175238095,1.54175824 C0.175238095,0.657142857 0.905396825,0.0252747253 1.92761905,0.0252747253 L2.36571429,0.0252747253 C3.24190476,0.0252747253 4.11809524,0.657142857 4.11809524,1.54175824 C4.11809524,2.42637363 3.38793651,3.05824176 2.36571429,3.05824176 Z M1.92761905,0.783516484 C1.34349206,0.783516484 0.905396825,1.16263736 0.905396825,1.66813187 C0.905396825,2.17362637 1.34349206,2.55274725 1.92761905,2.55274725 L2.36571429,2.55274725 C2.94984127,2.55274725 3.38793651,2.17362637 3.38793651,1.66813187 C3.38793651,1.16263736 2.94984127,0.783516484 2.36571429,0.783516484 L1.92761905,0.783516484 Z" id="Shape"></path>
                      </g>
                      <g id="Group" transform="translate(24.095238, 67.904762)">
                          <path d="M1.9568254,0.404395604 C1.22666667,0.404395604 0.642539683,0.90989011 0.642539683,1.54175824 C0.642539683,2.17362637 1.22666667,2.67912088 1.9568254,2.67912088 L2.39492063,2.67912088 C3.12507937,2.67912088 3.70920635,2.17362637 3.70920635,1.54175824 C3.70920635,0.90989011 3.12507937,0.404395604 2.39492063,0.404395604 L1.9568254,0.404395604 Z" id="Shape"></path>
                          <path d="M2.39492063,3.05824176 L1.9568254,3.05824176 C1.08063492,3.05824176 0.204444444,2.42637363 0.204444444,1.54175824 C0.204444444,0.657142857 0.934603175,0.0252747253 1.9568254,0.0252747253 L2.39492063,0.0252747253 C3.27111111,0.0252747253 4.14730159,0.657142857 4.14730159,1.54175824 C4.14730159,2.42637363 3.41714286,3.05824176 2.39492063,3.05824176 Z M1.9568254,0.783516484 C1.37269841,0.783516484 0.934603175,1.16263736 0.934603175,1.66813187 C0.934603175,2.17362637 1.37269841,2.55274725 1.9568254,2.55274725 L2.39492063,2.55274725 C2.97904762,2.55274725 3.41714286,2.17362637 3.41714286,1.66813187 C3.41714286,1.16263736 2.97904762,0.783516484 2.39492063,0.783516484 L1.9568254,0.783516484 Z" id="Shape"></path>
                      </g>
                      <g id="Group" transform="translate(28.476190, 67.904762)">
                          <path d="M1.9568254,0.404395604 C1.22666667,0.404395604 0.642539683,0.90989011 0.642539683,1.54175824 C0.642539683,2.17362637 1.22666667,2.67912088 1.9568254,2.67912088 L2.39492063,2.67912088 C3.12507937,2.67912088 3.70920635,2.17362637 3.70920635,1.54175824 C3.70920635,0.90989011 3.12507937,0.404395604 2.39492063,0.404395604 L1.9568254,0.404395604 Z" id="Shape"></path>
                          <path d="M2.39492063,3.05824176 L1.9568254,3.05824176 C1.08063492,3.05824176 0.204444444,2.42637363 0.204444444,1.54175824 C0.204444444,0.657142857 0.934603175,0.0252747253 1.9568254,0.0252747253 L2.39492063,0.0252747253 C3.27111111,0.0252747253 4.14730159,0.657142857 4.14730159,1.54175824 C4.14730159,2.42637363 3.41714286,3.05824176 2.39492063,3.05824176 Z M1.9568254,0.783516484 C1.37269841,0.783516484 0.934603175,1.16263736 0.934603175,1.66813187 C0.934603175,2.17362637 1.37269841,2.55274725 1.9568254,2.55274725 L2.39492063,2.55274725 C2.97904762,2.55274725 3.41714286,2.17362637 3.41714286,1.66813187 C3.41714286,1.16263736 2.97904762,0.783516484 2.39492063,0.783516484 L1.9568254,0.783516484 Z" id="Shape"></path>
                      </g>
                      <g id="Group" transform="translate(32.857143, 67.904762)">
                          <path d="M1.9568254,0.404395604 C1.22666667,0.404395604 0.642539683,0.90989011 0.642539683,1.54175824 C0.642539683,2.17362637 1.22666667,2.67912088 1.9568254,2.67912088 L2.39492063,2.67912088 C3.12507937,2.67912088 3.70920635,2.17362637 3.70920635,1.54175824 C3.70920635,0.90989011 3.12507937,0.404395604 2.39492063,0.404395604 L1.9568254,0.404395604 Z" id="Shape"></path>
                          <path d="M2.39492063,3.05824176 L1.9568254,3.05824176 C1.08063492,3.05824176 0.204444444,2.42637363 0.204444444,1.54175824 C0.204444444,0.657142857 0.934603175,0.0252747253 1.9568254,0.0252747253 L2.39492063,0.0252747253 C3.27111111,0.0252747253 4.14730159,0.657142857 4.14730159,1.54175824 C4.14730159,2.42637363 3.41714286,3.05824176 2.39492063,3.05824176 Z M1.9568254,0.783516484 C1.37269841,0.783516484 0.934603175,1.16263736 0.934603175,1.66813187 C0.934603175,2.17362637 1.37269841,2.55274725 1.9568254,2.55274725 L2.39492063,2.55274725 C2.97904762,2.55274725 3.41714286,2.17362637 3.41714286,1.66813187 C3.41714286,1.16263736 2.97904762,0.783516484 2.39492063,0.783516484 L1.9568254,0.783516484 Z" id="Shape"></path>
                      </g>
                      <g id="Group" transform="translate(36.142857, 67.904762)">
                          <path d="M1.98603175,0.404395604 C1.25587302,0.404395604 0.671746032,0.90989011 0.671746032,1.54175824 C0.671746032,2.17362637 1.25587302,2.67912088 1.98603175,2.67912088 L2.42412698,2.67912088 C3.15428571,2.67912088 3.7384127,2.17362637 3.7384127,1.54175824 C3.7384127,0.90989011 3.15428571,0.404395604 2.42412698,0.404395604 L1.98603175,0.404395604 Z" id="Shape"></path>
                          <path d="M2.42412698,3.05824176 L1.98603175,3.05824176 C1.10984127,3.05824176 0.233650794,2.42637363 0.233650794,1.54175824 C0.233650794,0.657142857 0.963809524,0.0252747253 1.98603175,0.0252747253 L2.42412698,0.0252747253 C3.30031746,0.0252747253 4.17650794,0.657142857 4.17650794,1.54175824 C4.17650794,2.42637363 3.44634921,3.05824176 2.42412698,3.05824176 Z M1.98603175,0.783516484 C1.40190476,0.783516484 0.963809524,1.16263736 0.963809524,1.66813187 C0.963809524,2.17362637 1.40190476,2.55274725 1.98603175,2.55274725 L2.42412698,2.55274725 C3.00825397,2.55274725 3.44634921,2.17362637 3.44634921,1.66813187 C3.44634921,1.16263736 3.00825397,0.783516484 2.42412698,0.783516484 L1.98603175,0.783516484 Z" id="Shape"></path>
                      </g>
                      <g id="Group" transform="translate(40.523810, 67.904762)">
                          <path d="M1.98603175,0.404395604 C1.25587302,0.404395604 0.671746032,0.90989011 0.671746032,1.54175824 C0.671746032,2.17362637 1.25587302,2.67912088 1.98603175,2.67912088 L2.42412698,2.67912088 C3.15428571,2.67912088 3.7384127,2.17362637 3.7384127,1.54175824 C3.7384127,0.90989011 3.15428571,0.404395604 2.42412698,0.404395604 L1.98603175,0.404395604 Z" id="Shape"></path>
                          <path d="M2.42412698,3.05824176 L1.98603175,3.05824176 C1.10984127,3.05824176 0.233650794,2.42637363 0.233650794,1.54175824 C0.233650794,0.657142857 0.963809524,0.0252747253 1.98603175,0.0252747253 L2.42412698,0.0252747253 C3.30031746,0.0252747253 4.17650794,0.657142857 4.17650794,1.54175824 C4.17650794,2.42637363 3.44634921,3.05824176 2.42412698,3.05824176 Z M1.98603175,0.783516484 C1.40190476,0.783516484 0.963809524,1.16263736 0.963809524,1.66813187 C0.963809524,2.17362637 1.40190476,2.55274725 1.98603175,2.55274725 L2.42412698,2.55274725 C3.00825397,2.55274725 3.44634921,2.17362637 3.44634921,1.66813187 C3.44634921,1.16263736 3.00825397,0.783516484 2.42412698,0.783516484 L1.98603175,0.783516484 Z" id="Shape"></path>
                      </g>
                      <g id="Group" transform="translate(44.904762, 67.904762)">
                          <path d="M1.98603175,0.404395604 C1.25587302,0.404395604 0.671746032,0.90989011 0.671746032,1.54175824 C0.671746032,2.17362637 1.25587302,2.67912088 1.98603175,2.67912088 L2.42412698,2.67912088 C3.15428571,2.67912088 3.7384127,2.17362637 3.7384127,1.54175824 C3.7384127,0.90989011 3.15428571,0.404395604 2.42412698,0.404395604 L1.98603175,0.404395604 Z" id="Shape"></path>
                          <path d="M2.42412698,3.05824176 L1.98603175,3.05824176 C1.10984127,3.05824176 0.233650794,2.42637363 0.233650794,1.54175824 C0.233650794,0.657142857 0.963809524,0.0252747253 1.98603175,0.0252747253 L2.42412698,0.0252747253 C3.30031746,0.0252747253 4.17650794,0.657142857 4.17650794,1.54175824 C4.17650794,2.42637363 3.47555556,3.05824176 2.42412698,3.05824176 Z M1.98603175,0.783516484 C1.40190476,0.783516484 0.963809524,1.16263736 0.963809524,1.66813187 C0.963809524,2.17362637 1.40190476,2.55274725 1.98603175,2.55274725 L2.42412698,2.55274725 C3.00825397,2.55274725 3.44634921,2.17362637 3.44634921,1.66813187 C3.44634921,1.16263736 3.00825397,0.783516484 2.42412698,0.783516484 L1.98603175,0.783516484 Z" id="Shape"></path>
                      </g>
                      <g id="Group" transform="translate(49.285714, 67.904762)">
                          <path d="M2.45333333,0.404395604 L2.0152381,0.404395604 C1.28507937,0.404395604 0.700952381,0.90989011 0.700952381,1.54175824 C0.700952381,2.17362637 1.28507937,2.67912088 2.0152381,2.67912088 L2.45333333,2.67912088 C3.18349206,2.67912088 3.76761905,2.17362637 3.76761905,1.54175824 C3.76761905,0.90989011 3.18349206,0.404395604 2.45333333,0.404395604 Z" id="Shape"></path>
                          <path d="M2.45333333,3.05824176 L2.0152381,3.05824176 C1.13904762,3.05824176 0.262857143,2.42637363 0.262857143,1.54175824 C0.262857143,0.657142857 0.993015873,0.0252747253 2.0152381,0.0252747253 L2.45333333,0.0252747253 C3.32952381,0.0252747253 4.20571429,0.657142857 4.20571429,1.54175824 C4.20571429,2.42637363 3.47555556,3.05824176 2.45333333,3.05824176 Z M2.0152381,0.783516484 C1.43111111,0.783516484 0.993015873,1.16263736 0.993015873,1.66813187 C0.993015873,2.17362637 1.43111111,2.55274725 2.0152381,2.55274725 L2.45333333,2.55274725 C3.03746032,2.55274725 3.47555556,2.17362637 3.47555556,1.66813187 C3.47555556,1.16263736 3.03746032,0.783516484 2.45333333,0.783516484 L2.0152381,0.783516484 Z" id="Shape"></path>
                      </g>
                      <g id="Group" transform="translate(7.666667, 71.190476)">
                          <path d="M2.50340136,0.657142857 L2.03401361,0.657142857 C1.25170068,0.657142857 0.62585034,1.16263736 0.62585034,1.79450549 C0.62585034,2.42637363 1.25170068,2.93186813 2.03401361,2.93186813 L2.50340136,2.93186813 C3.28571429,2.93186813 3.91156463,2.42637363 3.91156463,1.79450549 C3.94285714,1.16263736 3.28571429,0.657142857 2.50340136,0.657142857 Z" id="Shape"></path>
                          <path d="M2.50340136,3.18461538 L2.03401361,3.18461538 C1.0952381,3.18461538 0.156462585,2.55274725 0.156462585,1.66813187 C0.156462585,0.783516484 0.93877551,0.151648352 2.03401361,0.151648352 L2.50340136,0.151648352 C3.44217687,0.151648352 4.38095238,0.783516484 4.38095238,1.66813187 C4.38095238,2.55274725 3.62993197,3.18461538 2.50340136,3.18461538 Z M2.03401361,0.90989011 C1.40816327,0.90989011 0.93877551,1.28901099 0.93877551,1.79450549 C0.93877551,2.3 1.40816327,2.67912088 2.03401361,2.67912088 L2.50340136,2.67912088 C3.1292517,2.67912088 3.59863946,2.3 3.59863946,1.79450549 C3.59863946,1.28901099 3.1292517,0.90989011 2.50340136,0.90989011 L2.03401361,0.90989011 Z" id="Shape"></path>
                      </g>
                      <g id="Group" transform="translate(12.047619, 71.190476)">
                          <path d="M2.36571429,0.657142857 L1.92761905,0.657142857 C1.19746032,0.657142857 0.613333333,1.16263736 0.613333333,1.79450549 C0.613333333,2.42637363 1.19746032,2.93186813 1.92761905,2.93186813 L2.36571429,2.93186813 C3.09587302,2.93186813 3.68,2.42637363 3.68,1.79450549 C3.68,1.16263736 3.09587302,0.657142857 2.36571429,0.657142857 Z" id="Shape"></path>
                          <path d="M2.36571429,3.18461538 L1.92761905,3.18461538 C1.05142857,3.18461538 0.175238095,2.55274725 0.175238095,1.66813187 C0.175238095,0.783516484 0.905396825,0.151648352 1.92761905,0.151648352 L2.36571429,0.151648352 C3.24190476,0.151648352 4.11809524,0.783516484 4.11809524,1.66813187 C4.11809524,2.55274725 3.38793651,3.18461538 2.36571429,3.18461538 Z M1.92761905,0.90989011 C1.34349206,0.90989011 0.905396825,1.28901099 0.905396825,1.79450549 C0.905396825,2.3 1.34349206,2.67912088 1.92761905,2.67912088 L2.36571429,2.67912088 C2.94984127,2.67912088 3.38793651,2.3 3.38793651,1.79450549 C3.38793651,1.28901099 2.94984127,0.90989011 2.36571429,0.90989011 L1.92761905,0.90989011 Z" id="Shape"></path>
                      </g>
                      <g id="Group" transform="translate(16.428571, 71.190476)">
                          <path d="M2.36571429,0.657142857 L1.92761905,0.657142857 C1.19746032,0.657142857 0.613333333,1.16263736 0.613333333,1.79450549 C0.613333333,2.42637363 1.19746032,2.93186813 1.92761905,2.93186813 L2.36571429,2.93186813 C3.09587302,2.93186813 3.68,2.42637363 3.68,1.79450549 C3.68,1.16263736 3.09587302,0.657142857 2.36571429,0.657142857 Z" id="Shape"></path>
                          <path d="M2.36571429,3.18461538 L1.92761905,3.18461538 C1.05142857,3.18461538 0.175238095,2.55274725 0.175238095,1.66813187 C0.175238095,0.783516484 0.905396825,0.151648352 1.92761905,0.151648352 L2.36571429,0.151648352 C3.24190476,0.151648352 4.11809524,0.783516484 4.11809524,1.66813187 C4.11809524,2.55274725 3.38793651,3.18461538 2.36571429,3.18461538 Z M1.92761905,0.90989011 C1.34349206,0.90989011 0.905396825,1.28901099 0.905396825,1.79450549 C0.905396825,2.3 1.34349206,2.67912088 1.92761905,2.67912088 L2.36571429,2.67912088 C2.94984127,2.67912088 3.38793651,2.3 3.38793651,1.79450549 C3.38793651,1.28901099 2.94984127,0.90989011 2.36571429,0.90989011 L1.92761905,0.90989011 Z" id="Shape"></path>
                      </g>
                      <g id="Group" transform="translate(20.809524, 71.190476)">
                          <path d="M2.36571429,0.657142857 L1.92761905,0.657142857 C1.19746032,0.657142857 0.613333333,1.16263736 0.613333333,1.79450549 C0.613333333,2.42637363 1.19746032,2.93186813 1.92761905,2.93186813 L2.36571429,2.93186813 C3.09587302,2.93186813 3.68,2.42637363 3.68,1.79450549 C3.70920635,1.16263736 3.12507937,0.657142857 2.36571429,0.657142857 Z" id="Shape"></path>
                          <path d="M2.36571429,3.18461538 L1.92761905,3.18461538 C1.05142857,3.18461538 0.175238095,2.55274725 0.175238095,1.66813187 C0.175238095,0.783516484 0.905396825,0.151648352 1.92761905,0.151648352 L2.36571429,0.151648352 C3.24190476,0.151648352 4.11809524,0.783516484 4.11809524,1.66813187 C4.11809524,2.55274725 3.41714286,3.18461538 2.36571429,3.18461538 Z M1.92761905,0.90989011 C1.34349206,0.90989011 0.905396825,1.28901099 0.905396825,1.79450549 C0.905396825,2.3 1.34349206,2.67912088 1.92761905,2.67912088 L2.36571429,2.67912088 C2.94984127,2.67912088 3.38793651,2.3 3.38793651,1.79450549 C3.38793651,1.28901099 2.94984127,0.90989011 2.36571429,0.90989011 L1.92761905,0.90989011 Z" id="Shape"></path>
                      </g>
                      <g id="Group" transform="translate(25.190476, 71.190476)">
                          <path d="M2.39492063,2.93186813 C3.12507937,2.93186813 3.70920635,2.42637363 3.70920635,1.79450549 C3.70920635,1.16263736 3.12507937,0.657142857 2.39492063,0.657142857 L1.9568254,0.657142857 C1.22666667,0.657142857 0.642539683,1.16263736 0.642539683,1.79450549 C0.642539683,2.42637363 1.22666667,2.93186813 1.9568254,2.93186813 L2.39492063,2.93186813 Z" id="Shape"></path>
                          <path d="M2.39492063,3.18461538 L1.9568254,3.18461538 C1.08063492,3.18461538 0.204444444,2.55274725 0.204444444,1.66813187 C0.204444444,0.783516484 0.934603175,0.151648352 1.9568254,0.151648352 L2.39492063,0.151648352 C3.27111111,0.151648352 4.14730159,0.783516484 4.14730159,1.66813187 C4.14730159,2.55274725 3.41714286,3.18461538 2.39492063,3.18461538 Z M1.9568254,0.90989011 C1.37269841,0.90989011 0.934603175,1.28901099 0.934603175,1.79450549 C0.934603175,2.3 1.37269841,2.67912088 1.9568254,2.67912088 L2.39492063,2.67912088 C2.97904762,2.67912088 3.41714286,2.3 3.41714286,1.79450549 C3.41714286,1.28901099 2.97904762,0.90989011 2.39492063,0.90989011 L1.9568254,0.90989011 Z" id="Shape"></path>
                      </g>
                      <g id="Group" transform="translate(29.571429, 71.190476)">
                          <path d="M2.39492063,2.93186813 C3.12507937,2.93186813 3.70920635,2.42637363 3.70920635,1.79450549 C3.70920635,1.16263736 3.12507937,0.657142857 2.39492063,0.657142857 L1.9568254,0.657142857 C1.22666667,0.657142857 0.642539683,1.16263736 0.642539683,1.79450549 C0.642539683,2.42637363 1.22666667,2.93186813 1.9568254,2.93186813 L2.39492063,2.93186813 Z" id="Shape"></path>
                          <path d="M2.39492063,3.18461538 L1.9568254,3.18461538 C1.08063492,3.18461538 0.204444444,2.55274725 0.204444444,1.66813187 C0.204444444,0.783516484 0.934603175,0.151648352 1.9568254,0.151648352 L2.39492063,0.151648352 C3.27111111,0.151648352 4.14730159,0.783516484 4.14730159,1.66813187 C4.14730159,2.55274725 3.41714286,3.18461538 2.39492063,3.18461538 Z M1.9568254,0.90989011 C1.37269841,0.90989011 0.934603175,1.28901099 0.934603175,1.79450549 C0.934603175,2.3 1.37269841,2.67912088 1.9568254,2.67912088 L2.39492063,2.67912088 C2.97904762,2.67912088 3.41714286,2.3 3.41714286,1.79450549 C3.41714286,1.28901099 2.97904762,0.90989011 2.39492063,0.90989011 L1.9568254,0.90989011 Z" id="Shape"></path>
                      </g>
                      <g id="Group" transform="translate(33.952381, 71.190476)">
                          <path d="M2.42412698,2.93186813 C3.15428571,2.93186813 3.7384127,2.42637363 3.7384127,1.79450549 C3.7384127,1.16263736 3.15428571,0.657142857 2.42412698,0.657142857 L1.98603175,0.657142857 C1.25587302,0.657142857 0.671746032,1.16263736 0.671746032,1.79450549 C0.671746032,2.42637363 1.25587302,2.93186813 1.98603175,2.93186813 L2.42412698,2.93186813 Z" id="Shape"></path>
                          <path d="M2.42412698,3.18461538 L1.98603175,3.18461538 C1.10984127,3.18461538 0.233650794,2.55274725 0.233650794,1.66813187 C0.233650794,0.783516484 0.963809524,0.151648352 1.98603175,0.151648352 L2.42412698,0.151648352 C3.30031746,0.151648352 4.17650794,0.783516484 4.17650794,1.66813187 C4.17650794,2.55274725 3.44634921,3.18461538 2.42412698,3.18461538 Z M1.98603175,0.90989011 C1.40190476,0.90989011 0.963809524,1.28901099 0.963809524,1.79450549 C0.963809524,2.3 1.40190476,2.67912088 1.98603175,2.67912088 L2.42412698,2.67912088 C3.00825397,2.67912088 3.44634921,2.3 3.44634921,1.79450549 C3.44634921,1.28901099 3.00825397,0.90989011 2.42412698,0.90989011 L1.98603175,0.90989011 Z" id="Shape"></path>
                      </g>
                      <g id="Group" transform="translate(38.333333, 71.190476)">
                          <path d="M2.42412698,2.93186813 C3.15428571,2.93186813 3.7384127,2.42637363 3.7384127,1.79450549 C3.7384127,1.16263736 3.15428571,0.657142857 2.42412698,0.657142857 L1.98603175,0.657142857 C1.25587302,0.657142857 0.671746032,1.16263736 0.671746032,1.79450549 C0.671746032,2.42637363 1.25587302,2.93186813 1.98603175,2.93186813 L2.42412698,2.93186813 Z" id="Shape"></path>
                          <path d="M2.42412698,3.18461538 L1.98603175,3.18461538 C1.10984127,3.18461538 0.233650794,2.55274725 0.233650794,1.66813187 C0.233650794,0.783516484 0.963809524,0.151648352 1.98603175,0.151648352 L2.42412698,0.151648352 C3.30031746,0.151648352 4.17650794,0.783516484 4.17650794,1.66813187 C4.17650794,2.55274725 3.44634921,3.18461538 2.42412698,3.18461538 Z M1.98603175,0.90989011 C1.40190476,0.90989011 0.963809524,1.28901099 0.963809524,1.79450549 C0.963809524,2.3 1.40190476,2.67912088 1.98603175,2.67912088 L2.42412698,2.67912088 C3.00825397,2.67912088 3.44634921,2.3 3.44634921,1.79450549 C3.44634921,1.28901099 3.00825397,0.90989011 2.42412698,0.90989011 L1.98603175,0.90989011 Z" id="Shape"></path>
                      </g>
                      <g id="Group" transform="translate(42.714286, 71.190476)">
                          <path d="M2.42412698,0.657142857 L1.98603175,0.657142857 C1.25587302,0.657142857 0.671746032,1.16263736 0.671746032,1.79450549 C0.671746032,2.42637363 1.25587302,2.93186813 1.98603175,2.93186813 L2.42412698,2.93186813 C3.15428571,2.93186813 3.7384127,2.42637363 3.7384127,1.79450549 C3.7384127,1.16263736 3.15428571,0.657142857 2.42412698,0.657142857 Z" id="Shape"></path>
                          <path d="M2.42412698,3.18461538 L1.98603175,3.18461538 C1.10984127,3.18461538 0.233650794,2.55274725 0.233650794,1.66813187 C0.233650794,0.783516484 0.963809524,0.151648352 1.98603175,0.151648352 L2.42412698,0.151648352 C3.30031746,0.151648352 4.17650794,0.783516484 4.17650794,1.66813187 C4.17650794,2.55274725 3.44634921,3.18461538 2.42412698,3.18461538 Z M1.98603175,0.90989011 C1.40190476,0.90989011 0.963809524,1.28901099 0.963809524,1.79450549 C0.963809524,2.3 1.40190476,2.67912088 1.98603175,2.67912088 L2.42412698,2.67912088 C3.00825397,2.67912088 3.44634921,2.3 3.44634921,1.79450549 C3.44634921,1.28901099 3.00825397,0.90989011 2.42412698,0.90989011 L1.98603175,0.90989011 Z" id="Shape"></path>
                      </g>
                      <g id="Group" transform="translate(47.095238, 71.190476)">
                          <path d="M0.671746032,1.79450549 C0.671746032,2.42637363 1.25587302,2.93186813 1.98603175,2.93186813 L2.42412698,2.93186813 C3.15428571,2.93186813 3.7384127,2.42637363 3.7384127,1.79450549 C3.7384127,1.16263736 3.15428571,0.657142857 2.42412698,0.657142857 L1.98603175,0.657142857 C1.28507937,0.657142857 0.671746032,1.16263736 0.671746032,1.79450549 Z" id="Shape"></path>
                          <path d="M2.45333333,3.18461538 L2.0152381,3.18461538 C1.13904762,3.18461538 0.262857143,2.55274725 0.262857143,1.66813187 C0.262857143,0.90989011 0.993015873,0.151648352 2.0152381,0.151648352 L2.45333333,0.151648352 C3.32952381,0.151648352 4.20571429,0.783516484 4.20571429,1.66813187 C4.20571429,2.55274725 3.47555556,3.18461538 2.45333333,3.18461538 Z M2.0152381,0.90989011 C1.43111111,0.90989011 0.993015873,1.28901099 0.993015873,1.79450549 C0.993015873,2.3 1.43111111,2.67912088 2.0152381,2.67912088 L2.45333333,2.67912088 C3.03746032,2.67912088 3.47555556,2.3 3.47555556,1.79450549 C3.47555556,1.28901099 3.03746032,0.90989011 2.45333333,0.90989011 L2.0152381,0.90989011 Z" id="Shape"></path>
                      </g>
                      <g id="Group" transform="translate(7.666667, 78.857143)">
                          <path d="M1.8984127,2.95714286 L2.33650794,2.95714286 C3.06666667,2.95714286 3.65079365,2.45164835 3.65079365,1.81978022 C3.65079365,1.18791209 3.06666667,0.682417582 2.33650794,0.682417582 L1.8984127,0.682417582 C1.16825397,0.682417582 0.584126984,1.18791209 0.584126984,1.81978022 C0.584126984,2.45164835 1.16825397,2.95714286 1.8984127,2.95714286 Z" id="Shape"></path>
                          <path d="M2.33650794,3.20989011 L1.8984127,3.20989011 C1.02222222,3.20989011 0.146031746,2.57802198 0.146031746,1.69340659 C0.146031746,0.808791209 0.876190476,0.176923077 1.8984127,0.176923077 L2.33650794,0.176923077 C3.21269841,0.176923077 4.08888889,0.808791209 4.08888889,1.69340659 C4.11809524,2.57802198 3.38793651,3.20989011 2.33650794,3.20989011 Z M1.8984127,0.935164835 C1.31428571,0.935164835 0.876190476,1.31428571 0.876190476,1.81978022 C0.876190476,2.32527473 1.31428571,2.7043956 1.8984127,2.7043956 L2.33650794,2.7043956 C2.92063492,2.7043956 3.35873016,2.32527473 3.35873016,1.81978022 C3.35873016,1.31428571 2.92063492,0.935164835 2.33650794,0.935164835 L1.8984127,0.935164835 Z" id="Shape"></path>
                      </g>
                      <g id="Group" transform="translate(12.047619, 78.857143)">
                          <path d="M1.92761905,2.95714286 L2.36571429,2.95714286 C3.09587302,2.95714286 3.68,2.45164835 3.68,1.81978022 C3.68,1.18791209 3.09587302,0.682417582 2.36571429,0.682417582 L1.92761905,0.682417582 C1.19746032,0.682417582 0.613333333,1.18791209 0.613333333,1.81978022 C0.613333333,2.45164835 1.19746032,2.95714286 1.92761905,2.95714286 Z" id="Shape"></path>
                          <path d="M2.36571429,3.20989011 L1.92761905,3.20989011 C1.05142857,3.20989011 0.175238095,2.57802198 0.175238095,1.69340659 C0.175238095,0.808791209 0.905396825,0.176923077 1.92761905,0.176923077 L2.36571429,0.176923077 C3.24190476,0.176923077 4.11809524,0.808791209 4.11809524,1.69340659 C4.11809524,2.57802198 3.38793651,3.20989011 2.36571429,3.20989011 Z M1.92761905,0.935164835 C1.34349206,0.935164835 0.905396825,1.31428571 0.905396825,1.81978022 C0.905396825,2.32527473 1.34349206,2.7043956 1.92761905,2.7043956 L2.36571429,2.7043956 C2.94984127,2.7043956 3.38793651,2.32527473 3.38793651,1.81978022 C3.38793651,1.31428571 2.94984127,0.935164835 2.36571429,0.935164835 L1.92761905,0.935164835 Z" id="Shape"></path>
                      </g>
                      <g id="Group" transform="translate(16.428571, 78.857143)">
                          <path d="M1.92761905,2.95714286 L2.36571429,2.95714286 C3.09587302,2.95714286 3.68,2.45164835 3.68,1.81978022 C3.68,1.18791209 3.09587302,0.682417582 2.36571429,0.682417582 L1.92761905,0.682417582 C1.19746032,0.682417582 0.613333333,1.18791209 0.613333333,1.81978022 C0.613333333,2.45164835 1.19746032,2.95714286 1.92761905,2.95714286 Z" id="Shape"></path>
                          <path d="M2.36571429,3.20989011 L1.92761905,3.20989011 C1.05142857,3.20989011 0.175238095,2.57802198 0.175238095,1.69340659 C0.175238095,0.808791209 0.905396825,0.176923077 1.92761905,0.176923077 L2.36571429,0.176923077 C3.24190476,0.176923077 4.11809524,0.808791209 4.11809524,1.69340659 C4.11809524,2.57802198 3.38793651,3.20989011 2.36571429,3.20989011 Z M1.92761905,0.935164835 C1.34349206,0.935164835 0.905396825,1.31428571 0.905396825,1.81978022 C0.905396825,2.32527473 1.34349206,2.7043956 1.92761905,2.7043956 L2.36571429,2.7043956 C2.94984127,2.7043956 3.38793651,2.32527473 3.38793651,1.81978022 C3.38793651,1.31428571 2.94984127,0.935164835 2.36571429,0.935164835 L1.92761905,0.935164835 Z" id="Shape"></path>
                      </g>
                      <g id="Group" transform="translate(21.904762, 78.857143)">
                          <path d="M1.65765766,2.95714286 L20.039897,2.95714286 C20.7799228,2.95714286 21.3719434,2.45164835 21.3719434,1.81978022 C21.3719434,1.18791209 20.7799228,0.682417582 20.039897,0.682417582 L1.80566281,0.682417582 C1.06563707,0.682417582 0.473616474,1.18791209 0.473616474,1.81978022 C0.325611326,2.45164835 0.917631918,2.95714286 1.65765766,2.95714286 Z" id="Shape"></path>
                          <path d="M20.0694981,3.20989011 L1.83526384,3.20989011 C0.947232947,3.20989011 0.0592020592,2.57802198 0.0592020592,1.69340659 C0.0592020592,0.808791209 0.799227799,0.176923077 1.83526384,0.176923077 L20.0694981,0.176923077 C20.957529,0.176923077 21.8455598,0.808791209 21.8455598,1.69340659 C21.8455598,2.57802198 20.957529,3.20989011 20.0694981,3.20989011 Z M1.65765766,0.935164835 C1.06563707,0.935164835 0.621621622,1.31428571 0.621621622,1.81978022 C0.621621622,2.32527473 1.06563707,2.7043956 1.65765766,2.7043956 L20.039897,2.7043956 C20.6319176,2.7043956 21.0759331,2.32527473 21.0759331,1.81978022 C21.0759331,1.31428571 20.6319176,0.935164835 20.039897,0.935164835 L1.65765766,0.935164835 Z" id="Shape"></path>
                      </g>
                      <g id="Group" transform="translate(42.714286, 78.857143)">
                          <path d="M1.98603175,2.95714286 L2.42412698,2.95714286 C3.15428571,2.95714286 3.7384127,2.45164835 3.7384127,1.81978022 C3.7384127,1.18791209 3.15428571,0.682417582 2.42412698,0.682417582 L1.98603175,0.682417582 C1.25587302,0.682417582 0.671746032,1.18791209 0.671746032,1.81978022 C0.671746032,2.45164835 1.25587302,2.95714286 1.98603175,2.95714286 Z" id="Shape"></path>
                          <path d="M2.42412698,3.20989011 L1.98603175,3.20989011 C1.10984127,3.20989011 0.233650794,2.57802198 0.233650794,1.69340659 C0.233650794,0.808791209 0.963809524,0.176923077 1.98603175,0.176923077 L2.42412698,0.176923077 C3.30031746,0.176923077 4.17650794,0.808791209 4.17650794,1.69340659 C4.17650794,2.57802198 3.44634921,3.20989011 2.42412698,3.20989011 Z M1.98603175,0.935164835 C1.40190476,0.935164835 0.963809524,1.31428571 0.963809524,1.81978022 C0.963809524,2.32527473 1.40190476,2.7043956 1.98603175,2.7043956 L2.42412698,2.7043956 C3.00825397,2.7043956 3.44634921,2.32527473 3.44634921,1.81978022 C3.44634921,1.31428571 3.00825397,0.935164835 2.42412698,0.935164835 L1.98603175,0.935164835 Z" id="Shape"></path>
                      </g>
                      <g id="Group" transform="translate(47.095238, 78.857143)">
                          <path d="M2.0152381,2.95714286 L2.45333333,2.95714286 C3.18349206,2.95714286 3.76761905,2.45164835 3.76761905,1.81978022 C3.76761905,1.18791209 3.18349206,0.682417582 2.45333333,0.682417582 L2.0152381,0.682417582 C1.28507937,0.682417582 0.700952381,1.18791209 0.700952381,1.81978022 C0.671746032,2.45164835 1.28507937,2.95714286 2.0152381,2.95714286 Z" id="Shape"></path>
                          <path d="M2.45333333,3.20989011 L2.0152381,3.20989011 C1.13904762,3.20989011 0.262857143,2.57802198 0.262857143,1.69340659 C0.262857143,0.808791209 0.993015873,0.176923077 2.0152381,0.176923077 L2.45333333,0.176923077 C3.32952381,0.176923077 4.20571429,0.808791209 4.20571429,1.69340659 C4.20571429,2.57802198 3.47555556,3.20989011 2.45333333,3.20989011 Z M2.0152381,0.935164835 C1.43111111,0.935164835 0.993015873,1.31428571 0.993015873,1.81978022 C0.993015873,2.32527473 1.43111111,2.7043956 2.0152381,2.7043956 L2.45333333,2.7043956 C3.03746032,2.7043956 3.47555556,2.32527473 3.47555556,1.81978022 C3.47555556,1.31428571 3.03746032,0.935164835 2.45333333,0.935164835 L2.0152381,0.935164835 Z" id="Shape"></path>
                      </g>
                      <g id="Group" transform="translate(6.571429, 75.571429)">
                          <path d="M1.72108844,2.95714286 L2.19047619,2.95714286 C2.97278912,2.95714286 3.59863946,2.45164835 3.59863946,1.81978022 C3.59863946,1.18791209 2.97278912,0.682417582 2.19047619,0.682417582 L1.72108844,0.682417582 C0.93877551,0.682417582 0.31292517,1.18791209 0.31292517,1.81978022 C0.31292517,2.45164835 0.93877551,2.95714286 1.72108844,2.95714286 Z" id="Shape"></path>
                          <path d="M2.34693878,3.20989011 L1.87755102,3.20989011 C0.93877551,3.20989011 0,2.57802198 0,1.69340659 C0,0.935164835 0.782312925,0.176923077 1.87755102,0.176923077 L2.34693878,0.176923077 C3.28571429,0.176923077 4.2244898,0.808791209 4.2244898,1.69340659 C4.06802721,2.57802198 3.28571429,3.20989011 2.34693878,3.20989011 Z M1.72108844,0.90989011 C1.0952381,0.90989011 0.62585034,1.28901099 0.62585034,1.79450549 C0.62585034,2.3 1.0952381,2.67912088 1.72108844,2.67912088 L2.19047619,2.67912088 C2.81632653,2.67912088 3.28571429,2.3 3.28571429,1.79450549 C3.28571429,1.28901099 2.81632653,0.90989011 2.19047619,0.90989011 C2.19047619,0.90989011 1.72108844,0.90989011 1.72108844,0.90989011 Z" id="Shape"></path>
                      </g>
                      <g id="Group" transform="translate(10.952381, 75.571429)">
                          <path d="M2.37823129,2.95714286 C3.16054422,2.95714286 3.78639456,2.45164835 3.78639456,1.81978022 C3.78639456,1.18791209 3.16054422,0.682417582 2.37823129,0.682417582 L1.90884354,0.682417582 C1.12653061,0.682417582 0.500680272,1.18791209 0.500680272,1.81978022 C0.500680272,2.45164835 1.12653061,2.95714286 1.90884354,2.95714286 L2.37823129,2.95714286 Z" id="Shape"></path>
                          <path d="M2.37823129,3.20989011 L1.90884354,3.20989011 C0.970068027,3.20989011 0.031292517,2.57802198 0.031292517,1.69340659 C0.031292517,0.935164835 0.813605442,0.176923077 1.90884354,0.176923077 L2.37823129,0.176923077 C3.3170068,0.176923077 4.25578231,0.808791209 4.25578231,1.69340659 C4.09931973,2.57802198 3.3170068,3.20989011 2.37823129,3.20989011 Z M1.75238095,0.90989011 C1.12653061,0.90989011 0.657142857,1.28901099 0.657142857,1.79450549 C0.657142857,2.3 1.12653061,2.67912088 1.75238095,2.67912088 L2.22176871,2.67912088 C2.84761905,2.67912088 3.3170068,2.3 3.3170068,1.79450549 C3.3170068,1.28901099 2.84761905,0.90989011 2.22176871,0.90989011 C2.22176871,0.90989011 1.75238095,0.90989011 1.75238095,0.90989011 Z" id="Shape"></path>
                      </g>
                      <g id="Group" transform="translate(15.333333, 75.571429)">
                          <path d="M2.37823129,2.95714286 C3.16054422,2.95714286 3.78639456,2.45164835 3.78639456,1.81978022 C3.78639456,1.18791209 3.16054422,0.682417582 2.37823129,0.682417582 L1.90884354,0.682417582 C1.12653061,0.682417582 0.500680272,1.18791209 0.500680272,1.81978022 C0.500680272,2.45164835 1.12653061,2.95714286 1.90884354,2.95714286 L2.37823129,2.95714286 Z" id="Shape"></path>
                          <path d="M2.37823129,3.20989011 L1.90884354,3.20989011 C0.970068027,3.20989011 0.031292517,2.57802198 0.031292517,1.69340659 C0.031292517,0.935164835 0.813605442,0.176923077 1.90884354,0.176923077 L2.37823129,0.176923077 C3.3170068,0.176923077 4.25578231,0.808791209 4.25578231,1.69340659 C4.09931973,2.57802198 3.3170068,3.20989011 2.37823129,3.20989011 Z M1.75238095,0.90989011 C1.12653061,0.90989011 0.657142857,1.28901099 0.657142857,1.79450549 C0.657142857,2.3 1.12653061,2.67912088 1.75238095,2.67912088 L2.22176871,2.67912088 C2.84761905,2.67912088 3.3170068,2.3 3.3170068,1.79450549 C3.3170068,1.28901099 2.84761905,0.90989011 2.22176871,0.90989011 C2.22176871,0.90989011 1.75238095,0.90989011 1.75238095,0.90989011 Z" id="Shape"></path>
                      </g>
                      <g id="Group" transform="translate(19.714286, 75.571429)">
                          <path d="M2.36571429,2.95714286 C3.09587302,2.95714286 3.68,2.45164835 3.68,1.81978022 C3.68,1.18791209 3.09587302,0.682417582 2.36571429,0.682417582 L1.92761905,0.682417582 C1.19746032,0.682417582 0.613333333,1.18791209 0.613333333,1.81978022 C0.613333333,2.45164835 1.19746032,2.95714286 1.92761905,2.95714286 L2.36571429,2.95714286 Z" id="Shape"></path>
                          <path d="M2.36571429,3.20989011 L1.92761905,3.20989011 C1.05142857,3.20989011 0.175238095,2.57802198 0.175238095,1.69340659 C0.175238095,0.935164835 0.905396825,0.176923077 1.92761905,0.176923077 L2.36571429,0.176923077 C3.24190476,0.176923077 4.11809524,0.808791209 4.11809524,1.69340659 C4.11809524,2.57802198 3.38793651,3.20989011 2.36571429,3.20989011 Z M1.92761905,0.90989011 C1.34349206,0.90989011 0.905396825,1.28901099 0.905396825,1.79450549 C0.905396825,2.3 1.34349206,2.67912088 1.92761905,2.67912088 L2.36571429,2.67912088 C2.94984127,2.67912088 3.38793651,2.3 3.38793651,1.79450549 C3.38793651,1.28901099 2.94984127,0.90989011 2.36571429,0.90989011 C2.36571429,0.90989011 1.92761905,0.90989011 1.92761905,0.90989011 Z" id="Shape"></path>
                      </g>
                      <g id="Group" transform="translate(24.095238, 75.571429)">
                          <path d="M1.9568254,2.95714286 L2.39492063,2.95714286 C3.12507937,2.95714286 3.70920635,2.45164835 3.70920635,1.81978022 C3.70920635,1.18791209 3.12507937,0.682417582 2.39492063,0.682417582 L1.9568254,0.682417582 C1.22666667,0.682417582 0.642539683,1.18791209 0.642539683,1.81978022 C0.642539683,2.45164835 1.22666667,2.95714286 1.9568254,2.95714286 Z" id="Shape"></path>
                          <path d="M2.39492063,3.20989011 L1.9568254,3.20989011 C1.08063492,3.20989011 0.204444444,2.57802198 0.204444444,1.69340659 C0.204444444,0.935164835 0.934603175,0.176923077 1.9568254,0.176923077 L2.39492063,0.176923077 C3.27111111,0.176923077 4.14730159,0.808791209 4.14730159,1.69340659 C4.14730159,2.57802198 3.41714286,3.20989011 2.39492063,3.20989011 Z M1.9568254,0.90989011 C1.37269841,0.90989011 0.934603175,1.28901099 0.934603175,1.79450549 C0.934603175,2.3 1.37269841,2.67912088 1.9568254,2.67912088 L2.39492063,2.67912088 C2.97904762,2.67912088 3.41714286,2.3 3.41714286,1.79450549 C3.41714286,1.28901099 2.97904762,0.90989011 2.39492063,0.90989011 C2.39492063,0.90989011 1.9568254,0.90989011 1.9568254,0.90989011 Z" id="Shape"></path>
                      </g>
                      <g id="Group" transform="translate(28.476190, 75.571429)">
                          <path d="M1.9568254,2.95714286 L2.39492063,2.95714286 C3.12507937,2.95714286 3.70920635,2.45164835 3.70920635,1.81978022 C3.70920635,1.18791209 3.12507937,0.682417582 2.39492063,0.682417582 L1.9568254,0.682417582 C1.22666667,0.682417582 0.642539683,1.18791209 0.642539683,1.81978022 C0.642539683,2.45164835 1.22666667,2.95714286 1.9568254,2.95714286 Z" id="Shape"></path>
                          <path d="M2.39492063,3.20989011 L1.9568254,3.20989011 C1.08063492,3.20989011 0.204444444,2.57802198 0.204444444,1.69340659 C0.204444444,0.935164835 0.934603175,0.176923077 1.9568254,0.176923077 L2.39492063,0.176923077 C3.27111111,0.176923077 4.14730159,0.808791209 4.14730159,1.69340659 C4.14730159,2.57802198 3.41714286,3.20989011 2.39492063,3.20989011 Z M1.9568254,0.90989011 C1.37269841,0.90989011 0.934603175,1.28901099 0.934603175,1.79450549 C0.934603175,2.3 1.37269841,2.67912088 1.9568254,2.67912088 L2.39492063,2.67912088 C2.97904762,2.67912088 3.41714286,2.3 3.41714286,1.79450549 C3.41714286,1.28901099 2.97904762,0.90989011 2.39492063,0.90989011 C2.39492063,0.90989011 1.9568254,0.90989011 1.9568254,0.90989011 Z" id="Shape"></path>
                      </g>
                      <g id="Group" transform="translate(32.857143, 75.571429)">
                          <path d="M1.9568254,2.95714286 L2.39492063,2.95714286 C3.12507937,2.95714286 3.70920635,2.45164835 3.70920635,1.81978022 C3.70920635,1.18791209 3.12507937,0.682417582 2.39492063,0.682417582 L1.9568254,0.682417582 C1.22666667,0.682417582 0.642539683,1.18791209 0.642539683,1.81978022 C0.642539683,2.45164835 1.22666667,2.95714286 1.9568254,2.95714286 Z" id="Shape"></path>
                          <path d="M2.39492063,3.20989011 L1.9568254,3.20989011 C1.08063492,3.20989011 0.204444444,2.57802198 0.204444444,1.69340659 C0.204444444,0.935164835 0.934603175,0.176923077 1.9568254,0.176923077 L2.39492063,0.176923077 C3.27111111,0.176923077 4.14730159,0.808791209 4.14730159,1.69340659 C4.17650794,2.57802198 3.41714286,3.20989011 2.39492063,3.20989011 Z M1.9568254,0.90989011 C1.37269841,0.90989011 0.934603175,1.28901099 0.934603175,1.79450549 C0.934603175,2.3 1.37269841,2.67912088 1.9568254,2.67912088 L2.39492063,2.67912088 C2.97904762,2.67912088 3.41714286,2.3 3.41714286,1.79450549 C3.41714286,1.28901099 2.97904762,0.90989011 2.39492063,0.90989011 C2.39492063,0.90989011 1.9568254,0.90989011 1.9568254,0.90989011 Z" id="Shape"></path>
                      </g>
                      <g id="Group" transform="translate(36.142857, 75.571429)">
                          <path d="M1.98603175,2.95714286 L2.42412698,2.95714286 C3.15428571,2.95714286 3.7384127,2.45164835 3.7384127,1.81978022 C3.7384127,1.18791209 3.15428571,0.682417582 2.42412698,0.682417582 L1.98603175,0.682417582 C1.25587302,0.682417582 0.671746032,1.18791209 0.671746032,1.81978022 C0.671746032,2.45164835 1.25587302,2.95714286 1.98603175,2.95714286 Z" id="Shape"></path>
                          <path d="M2.42412698,3.20989011 L1.98603175,3.20989011 C1.10984127,3.20989011 0.233650794,2.57802198 0.233650794,1.69340659 C0.233650794,0.935164835 0.963809524,0.176923077 1.98603175,0.176923077 L2.42412698,0.176923077 C3.30031746,0.176923077 4.17650794,0.808791209 4.17650794,1.69340659 C4.17650794,2.57802198 3.44634921,3.20989011 2.42412698,3.20989011 Z M1.98603175,0.90989011 C1.40190476,0.90989011 0.963809524,1.28901099 0.963809524,1.79450549 C0.963809524,2.3 1.40190476,2.67912088 1.98603175,2.67912088 L2.42412698,2.67912088 C3.00825397,2.67912088 3.44634921,2.3 3.44634921,1.79450549 C3.44634921,1.28901099 3.00825397,0.90989011 2.42412698,0.90989011 C2.42412698,0.90989011 1.98603175,0.90989011 1.98603175,0.90989011 Z" id="Shape"></path>
                      </g>
                      <g id="Group" transform="translate(40.523810, 75.571429)">
                          <path d="M2.42412698,2.95714286 C3.15428571,2.95714286 3.7384127,2.45164835 3.7384127,1.81978022 C3.7384127,1.18791209 3.15428571,0.682417582 2.42412698,0.682417582 L1.98603175,0.682417582 C1.25587302,0.682417582 0.671746032,1.18791209 0.671746032,1.81978022 C0.671746032,2.45164835 1.25587302,2.95714286 1.98603175,2.95714286 L2.42412698,2.95714286 Z" id="Shape"></path>
                          <path d="M2.42412698,3.20989011 L1.98603175,3.20989011 C1.10984127,3.20989011 0.233650794,2.57802198 0.233650794,1.69340659 C0.233650794,0.935164835 0.963809524,0.176923077 1.98603175,0.176923077 L2.42412698,0.176923077 C3.30031746,0.176923077 4.17650794,0.808791209 4.17650794,1.69340659 C4.17650794,2.57802198 3.44634921,3.20989011 2.42412698,3.20989011 Z M1.98603175,0.90989011 C1.40190476,0.90989011 0.963809524,1.28901099 0.963809524,1.79450549 C0.963809524,2.3 1.40190476,2.67912088 1.98603175,2.67912088 L2.42412698,2.67912088 C3.00825397,2.67912088 3.44634921,2.3 3.44634921,1.79450549 C3.44634921,1.28901099 3.00825397,0.90989011 2.42412698,0.90989011 C2.42412698,0.90989011 1.98603175,0.90989011 1.98603175,0.90989011 Z" id="Shape"></path>
                      </g>
                      <g id="Group" transform="translate(44.904762, 75.571429)">
                          <path d="M2.42412698,2.95714286 C3.15428571,2.95714286 3.7384127,2.45164835 3.7384127,1.81978022 C3.7384127,1.18791209 3.15428571,0.682417582 2.42412698,0.682417582 L1.98603175,0.682417582 C1.25587302,0.682417582 0.671746032,1.18791209 0.671746032,1.81978022 C0.671746032,2.45164835 1.25587302,2.95714286 1.98603175,2.95714286 L2.42412698,2.95714286 Z" id="Shape"></path>
                          <path d="M2.42412698,3.20989011 L1.98603175,3.20989011 C1.10984127,3.20989011 0.233650794,2.57802198 0.233650794,1.69340659 C0.233650794,0.935164835 0.963809524,0.176923077 1.98603175,0.176923077 L2.42412698,0.176923077 C3.30031746,0.176923077 4.17650794,0.808791209 4.17650794,1.69340659 C4.20571429,2.57802198 3.47555556,3.20989011 2.42412698,3.20989011 Z M1.98603175,0.90989011 C1.40190476,0.90989011 0.963809524,1.28901099 0.963809524,1.79450549 C0.963809524,2.3 1.40190476,2.67912088 1.98603175,2.67912088 L2.42412698,2.67912088 C3.00825397,2.67912088 3.44634921,2.3 3.44634921,1.79450549 C3.44634921,1.28901099 3.00825397,0.90989011 2.42412698,0.90989011 C2.42412698,0.90989011 1.98603175,0.90989011 1.98603175,0.90989011 Z" id="Shape"></path>
                      </g>
                      <g id="Group" transform="translate(49.285714, 75.571429)">
                          <path d="M2.45333333,2.95714286 C3.18349206,2.95714286 3.76761905,2.45164835 3.76761905,1.81978022 C3.76761905,1.18791209 3.18349206,0.682417582 2.45333333,0.682417582 L2.0152381,0.682417582 C1.28507937,0.682417582 0.700952381,1.18791209 0.700952381,1.81978022 C0.700952381,2.45164835 1.28507937,2.95714286 2.0152381,2.95714286 L2.45333333,2.95714286 Z" id="Shape"></path>
                          <path d="M2.45333333,3.20989011 L2.0152381,3.20989011 C1.13904762,3.20989011 0.262857143,2.57802198 0.262857143,1.69340659 C0.262857143,0.935164835 0.993015873,0.176923077 2.0152381,0.176923077 L2.45333333,0.176923077 C3.32952381,0.176923077 4.20571429,0.808791209 4.20571429,1.69340659 C4.20571429,2.57802198 3.47555556,3.20989011 2.45333333,3.20989011 Z M2.0152381,0.90989011 C1.43111111,0.90989011 0.993015873,1.28901099 0.993015873,1.79450549 C0.993015873,2.3 1.43111111,2.67912088 2.0152381,2.67912088 L2.45333333,2.67912088 C3.03746032,2.67912088 3.47555556,2.3 3.47555556,1.79450549 C3.47555556,1.28901099 3.03746032,0.90989011 2.45333333,0.90989011 C2.45333333,0.90989011 2.0152381,0.90989011 2.0152381,0.90989011 Z" id="Shape"></path>
                      </g>
                      <g id="Group" transform="translate(2.190476, 61.333333)">
                          <path d="M55.4704568,22.957684 L3.19630709,22.957684 C2.61516035,22.957684 2.32458698,22.5283009 2.32458698,21.95579 L2.32458698,3.14880952 C2.32458698,2.5762987 2.76044704,2.14691558 3.19630709,2.14691558 L55.4704568,2.14691558 C55.9063168,2.14691558 56.3421769,1.71753247 56.3421769,1.28814935 C56.3421769,0.858766234 55.9063168,0.429383117 55.4704568,0.429383117 L3.19630709,0.429383117 C1.74344023,0.429383117 0.581146744,1.71753247 0.581146744,3.14880952 L0.581146744,21.95579 C0.581146744,23.5301948 1.74344023,24.6752165 3.19630709,24.6752165 L55.4704568,24.6752165 C55.9063168,24.6752165 56.3421769,24.2458333 56.3421769,23.8164502 C56.3421769,23.3870671 56.0516035,22.957684 55.4704568,22.957684 Z" id="Shape"></path>
                          <path d="M55.4704568,25.1045996 L3.19630709,25.1045996 C1.45286686,25.1045996 0.145286686,23.6733225 0.145286686,21.95579 L0.145286686,3.14880952 C0.145286686,1.43127706 1.45286686,0 3.19630709,0 L55.4704568,0 C56.1968902,0 56.7780369,0.572510823 56.7780369,1.28814935 C56.7780369,2.00378788 56.1968902,2.5762987 55.4704568,2.5762987 L3.19630709,2.5762987 C2.90573372,2.5762987 2.61516035,2.86255411 2.61516035,3.29193723 L2.61516035,22.0989177 C2.61516035,22.5283009 2.90573372,22.8145563 3.19630709,22.8145563 L55.4704568,22.8145563 C56.1968902,22.8145563 56.7780369,23.3870671 56.7780369,24.1027056 C56.7780369,24.5320887 56.1968902,25.1045996 55.4704568,25.1045996 Z M3.19630709,0.858766234 C1.88872692,0.858766234 0.871720117,1.86066017 0.871720117,3.29193723 L0.871720117,22.0989177 C0.871720117,23.3870671 1.88872692,24.5320887 3.19630709,24.5320887 L55.4704568,24.5320887 C55.7610301,24.5320887 56.0516035,24.2458333 56.0516035,23.9595779 C56.0516035,23.6733225 55.7610301,23.3870671 55.4704568,23.3870671 L3.19630709,23.3870671 C2.46987366,23.3870671 1.88872692,22.8145563 1.88872692,21.95579 L1.88872692,3.14880952 C1.88872692,2.433171 2.46987366,1.71753247 3.19630709,1.71753247 L55.4704568,1.71753247 C55.7610301,1.71753247 56.0516035,1.43127706 56.0516035,1.14502165 C56.0516035,0.858766234 55.7610301,0.572510823 55.4704568,0.572510823 L3.19630709,0.572510823 L3.19630709,0.858766234 Z" id="Shape"></path>
                      </g>
                  </g>
              </g>
          </g>
      </g>
    <g>

  </defs>
</svg>
