
<svg width="318px" height="62px" viewBox="0 0 318 62" version="1.1" xmlns="http://www.w3.org/2000/svg" xmlns:xlink="http://www.w3.org/1999/xlink">
    <!-- Generator: Sketch 51.3 (57544) - http://www.bohemiancoding.com/sketch -->
    <desc>Created with Sketch.</desc>
    <defs></defs>
    <g id="Drives-Mockups" stroke="none" stroke-width="1" fill="none" fill-rule="evenodd">
        <g id="05-About" transform="translate(-265.000000, -2637.000000)" fill="#FF8300" fill-rule="nonzero">
            <g id="Affilitations" transform="translate(156.000000, 2531.000000)">
                <g id="affiliations" transform="translate(0.000000, 61.000000)">
                    <g id="Group-4" transform="translate(108.000000, 45.000000)">
                        <g id="Brand-logos-timken" transform="translate(1.000000, 0.000000)">
                            <path d="M75.8638095,62 L75.8638095,53.9182185 L73.8828571,53.9182185 C71.7618781,53.7879128 70.0793315,52.1499151 69.9704762,50.109426 L69.9704762,11.4025725 C70.0923311,9.32773575 71.8116663,7.66972895 73.9695238,7.54617009 L76,7.54617009 L76,0 L50.0866667,0 L50.0866667,7.59378 L52.0057143,7.59378 C54.1839963,7.72664965 55.9218051,9.39220545 56.0666667,11.4858898 L56.0666667,50.109426 C55.9178257,52.1310113 54.2447572,53.7394222 52.1419048,53.882511 L50,53.882511 L50,61.9880975 L75.9133333,61.9880975" id="Shape"></path>
                            <path d="M275.20092,0 L255.036311,0 L255.036311,7.61173988 L256.936577,7.61173988 C259.071281,7.91805134 260.671019,9.69088671 260.725006,11.8100902 L260.725006,50.1661232 C260.644805,52.2102421 258.98026,53.851047 256.900266,53.9363131 L255,53.9363131 L255,62 L275.951344,62 L275.951344,53.864953 L274.063181,53.864953 C272.050277,53.7736292 270.400739,52.2634908 270.165819,50.2969499 L270.165819,22.2762325 L285.900508,61.9286399 L299.214476,61.9286399 L299.214476,11.286783 C299.385284,9.17977526 301.178663,7.55749212 303.329702,7.56416651 L305,7.56416651 L305,0 L284.109175,0 L284.109175,7.55227316 L286.14258,7.55227316 C288.216747,7.6266982 289.898824,9.22822278 290.039942,11.2629964 L290.039942,36.1200844 L275.20092,0" id="Shape"></path>
                            <path d="M203.347129,53.9125264 C201.340153,53.9125264 201.074169,53.2227124 199.212276,50.7964704 C199.212276,50.7964704 185.574518,31.8860541 183.374099,28.6867447 C184.812834,26.5697295 197.084399,8.97947439 197.084399,8.97947439 C197.619147,8.05431526 198.639798,7.50624302 199.720065,7.56416651 L202.005115,7.56416651 L202.005115,0.0475733743 L180.823064,0.0475733743 L180.823064,7.64741991 L182.140897,7.64741991 C182.697233,7.59794125 183.241828,7.82562509 183.591723,8.25398043 C184.280865,9.08651448 182.987212,10.799156 182.636596,11.2392097 L172.02139,26.308076 L172.02139,11.3105697 C172.11978,9.28694616 173.772102,7.67184996 175.829807,7.58795319 L177.836782,7.58795319 L177.836782,0 L152.120902,0 L152.120902,7.59984654 L154.127877,7.59984654 C156.148001,7.72606573 157.74489,9.33288712 157.827482,11.3224631 L157.827482,50.1185498 C157.718848,52.1745829 156.04868,53.8175544 153.958614,53.9244197 L152,53.9244197 L152,62 L177.945594,62 L177.945594,53.9125264 L176.01116,53.9125264 C173.857819,53.8792551 172.093301,52.2211908 171.960939,50.1066564 L171.960939,33.1467485 C172.964427,34.3360829 184.305045,50.9867639 184.305045,50.9867639 C185.755871,53.9125264 183.615903,53.9125264 182.636596,53.9125264 L181.282492,53.9125264 L181.282492,61.9881067 L204,61.9881067 L204,53.9125264 L203.44385,53.9125264" id="Shape"></path>
                            <path d="M209,61.988093 L253,61.988093 L253,46.0207413 L245.662457,46.0207413 L245.662457,50.14058 C245.511362,52.168795 243.775158,53.7699172 241.621125,53.8674861 L229.737084,53.8674861 L229.737084,33.1492222 L234.47302,33.1492222 C236.580203,33.3958119 238.240178,34.9608718 238.501722,36.9475706 L238.501722,39.4480507 L245.700344,39.4480507 L245.700344,20.0276551 L238.53961,20.0276551 L238.53961,22.4090647 C238.60376,24.3643115 236.98795,26.00451 234.91504,26.0883426 L229.774971,26.0883426 L229.774971,7.56097561 L240.913892,7.56097561 C243.0779,7.63203419 244.826155,9.24932532 244.942595,11.2878817 L244.942595,15.3005569 L252.141217,15.3005569 L252.141217,0 L209.202067,0 L209.202067,7.59669675 L211.172216,7.59669675 C213.276048,7.66972151 215.000665,9.19410247 215.213548,11.1688112 L215.213548,50.2239293 C214.920366,52.201128 213.229049,53.7317576 211.121699,53.9270213 L209.063146,53.9270213 L209.063146,62" id="Shape"></path>
                            <path d="M36.5085399,62 L36.5085399,53.9166667 L33.7460055,53.9166667 C31.5344322,53.9166667 29.7415978,52.2324045 29.7415978,50.1547619 L29.7415978,7.53571429 L35.5327824,7.53571429 C37.7653516,7.53571429 39.5752066,9.23596625 39.5752066,11.3333333 L39.5752066,16.7380952 L46,16.7380952 L46,0 L0,0 L0,16.7619048 L6.43746556,16.7619048 L6.43746556,11.3571429 C6.43746556,9.25977577 8.24732055,7.55952381 10.4798898,7.55952381 L16.2837466,7.55952381 L16.2837466,50.1309524 C16.305,52.188321 14.5577442,53.8775737 12.3680441,53.9166667 L9.52947658,53.9166667 L9.52947658,61.9880952 L36.5085399,61.9880952" id="Shape"></path>
                            <path d="M89.0219357,11.3355099 C88.9225534,9.27885679 87.2205973,7.63325328 85.0935155,7.53716151 L83.0985184,7.53716151 L83.0985184,0 L103.713489,0 L114.981528,36.9951988 L126.298826,0 L147,0 L147,7.59669675 L145.066577,7.59669675 C142.933048,7.70737682 141.223271,9.34518781 141.088897,11.4069522 L141.088897,50.2596505 C141.203223,52.2741765 142.894615,53.8681636 144.980373,53.9270213 L146.913796,53.9270213 L146.913796,62 L123.515682,62 L123.515682,53.9270213 L124.747162,53.9270213 C126.660243,53.7631631 128.075645,52.1336987 127.912065,50.2834646 L127.912065,22.4328788 L115.905138,62 L109.920146,62 L98.3442371,22.7067409 L98.3442371,50.2120223 C98.150866,52.0696299 99.5510655,53.7272822 101.472195,53.9151143 L102.703675,53.9151143 L102.703675,61.988093 L83,61.988093 L83,53.9270213 L85.0073119,53.9270213 C87.1333633,53.8563838 88.8529169,52.2299093 88.9726765,50.1763011 L88.9726765,11.3236028" id="Shape"></path>
                            <g id="Layer_17" transform="translate(309.000000, 0.000000)">
                                <path d="M4.87644231,3.64 C5.34375,3.64 5.52548077,3.54095238 5.52548077,3.13238095 C5.52548077,2.72380952 5.08413462,2.71142857 4.66875,2.71142857 L3.73413462,2.71142857 L3.73413462,3.65238095 L4.87644231,3.64 Z M3.73413462,6.11619048 L2.78653846,6.11619048 L2.78653846,1.94380952 L4.86346154,1.94380952 C5.2630782,1.91064149 5.66499336,1.97453206 6.03173077,2.12952381 C6.38881291,2.38868387 6.58024687,2.80535942 6.53798077,3.23142857 C6.53798077,3.98666667 6.12259615,4.29619048 5.36971154,4.38285714 L6.42115385,6.06666667 L5.33076923,6.06666667 L4.38317308,4.38285714 L3.76009615,4.38285714 L3.73413462,6.11619048 Z M1.52740385,4.16 C1.54900791,5.68700755 2.85556253,6.91275481 4.45668699,6.9081138 C6.05781146,6.90347278 7.35653093,5.67017389 7.36840382,4.1430693 C7.3802767,2.61596471 6.10087622,1.36443115 4.5,1.33714286 C3.72433059,1.33383262 2.97942777,1.62626356 2.43094118,2.14940562 C1.88245459,2.67254768 1.57585631,3.38302995 1.57932692,4.12285714 L1.52740385,4.16 Z M0.462980769,4.16 C0.43449482,2.0610518 2.19530338,0.337460248 4.39593717,0.310171806 C6.59657096,0.282883364 8.40376456,1.96223075 8.43249956,4.06117586 C8.46123457,6.16012097 6.70063054,7.88390258 4.5,7.91142857 C3.44428221,7.91471923 2.43062114,7.51702048 1.68289515,6.80616854 C0.935169153,6.0953166 0.514898209,5.12979758 0.514903846,4.12285714 L0.462980769,4.16 Z" id="Fill-50"></path>
                            </g>
                        </g>
                    </g>
                </g>
            </g>
        </g>
    </g>
</svg>
