
<svg width="94px" height="79px" viewBox="0 0 94 79" version="1.1" xmlns="http://www.w3.org/2000/svg" xmlns:xlink="http://www.w3.org/1999/xlink">
    <!-- Generator: Sketch 51.2 (57519) - http://www.bohemiancoding.com/sketch -->
    <desc>Created with Sketch.</desc>
    <defs></defs>
    <g id="Drives-Mockups" stroke="none" stroke-width="1" fill="none" fill-rule="evenodd">
        <g id="01-Home" transform="translate(-756.000000, -1875.000000)" fill="#FF8300" fill-rule="nonzero">
            <g id="icons-dark" transform="translate(198.000000, 1671.000000)">
                <g id="tools" transform="translate(558.000000, 204.000000)">
                    <path d="M59.4363208,21.2425629 L61,19.6086957 C61,19.6086957 61,19.4485126 61,19.1601831 C60.5707547,19.1601831 59.9882075,19 59.5589623,19 C53.1509434,19 48,24.3501144 48,31.0778032 C48,31.6864989 48,32.423341 48.1533019,33 L50.1462264,30.9176201 C50.3301887,25.5675057 54.3160377,21.402746 59.4363208,21.2425629 Z" id="Shape"></path>
                    <path d="M25.9030318,54.9483403 C13.7521223,54.7905203 3.4899551,45.2581939 2.48262581,33.0744918 C1.88452404,26.1619769 4.37136823,19.407282 9.21914045,14.4201707 C14.0669127,9.43305953 20.8034273,6.78168395 27.6658581,7.22357988 C31.474822,7.50765584 35.2837859,8.70708765 38.494648,10.6009273 C40.9814922,12.0844351 44.0664381,12.0844351 46.5532823,10.6009273 C49.7641445,8.54926767 53.5731083,7.38139986 57.3820722,7.22357988 C59.4282099,7.06575991 61.4743475,7.22357988 63.5204851,7.66547581 C63.9611917,6.93950393 64.5592934,6.33978802 65,5.77163611 C62.5131558,5.17192021 59.8689164,4.88784425 57.224677,5.04566423 C52.9750066,5.32974018 48.8827313,6.65542797 45.3570788,8.86490762 C43.5942525,9.90651946 41.2648036,9.90651946 39.5019773,8.86490762 C35.8504086,6.65542797 31.7266543,5.32974018 27.6343791,5.04566423 C20.1738465,4.6037683 12.8392301,7.38139986 7.42483515,12.841971 C2.1678354,18.2394141 -0.63379919,25.720081 0.121697779,33.2007478 C1.16050611,45.8263458 11.2652781,55.8321322 23.699499,57 L25.9030318,54.9483403 Z" id="Shape"></path>
                    <path d="M45.1587302,30.4126984 C45.1587302,22.5714286 51.5079365,16.2222222 59.3492063,16.2222222 C59.7936508,16.2222222 60.3968254,16.2222222 60.8412698,16.3809524 C60.8412698,15.6507937 60.8412698,14.8888889 61,14.1587302 C60.3968254,14.1587302 59.952381,14 59.3809524,14 C50.3650794,14 43,21.3968254 43,30.3809524 C43,32.2857143 43.2857143,34.2222222 44.047619,36 L45.8253968,34.2222222 C45.3174603,33.0793651 45.1587302,31.7460317 45.1587302,30.4126984 Z" id="Shape"></path>
                    <path d="M26,19 C19.3474801,19 14,24.3156499 14,31 C14,37.6843501 19.3156499,43 26,43 C32.6843501,43 38,37.6843501 38,31 C38,24.3156499 32.6843501,19 26,19 Z M26,40.7718833 C20.6843501,40.7718833 16.2281167,36.3156499 16.2281167,31 C16.2281167,25.6843501 20.6843501,21.2281167 26,21.2281167 C31.3156499,21.2281167 35.7718833,25.6843501 35.7718833,31 C35.7718833,36.3156499 31.3474801,40.7718833 26,40.7718833 Z" id="Shape"></path>
                    <path d="M26,14 C17.1937984,14 10,21.2248062 10,30 C10,38.7751938 17.2248062,46 26,46 C34.7751938,46 42,38.7751938 42,30 C42,21.2248062 34.8062016,14 26,14 Z M26,43.8604651 C18.3410853,43.8604651 12.1395349,37.6589147 12.1395349,30 C12.1395349,22.3410853 18.3410853,16.1395349 26,16.1395349 C33.6589147,16.1395349 39.8604651,22.3410853 39.8604651,30 C39.8604651,37.6589147 33.6589147,43.8604651 26,43.8604651 Z" id="Shape"></path>
                    <path d="M18,30.5 C18,34.6845494 21.2145923,38 25,38 L25,35.7467811 C22.2060086,35.7467811 20.1030043,33.3648069 20.1030043,30.5 C20.1030043,27.6351931 22.3261803,25.2532189 25,25.2532189 L25,23 C21.0643777,23.0321888 18,26.3154506 18,30.5 Z" id="Shape"></path>
                    <path d="M57.6479754,35.0589696 L55.6113996,37.1133965 C55.1727525,37.5558884 55.1727525,38.2828395 55.6113996,38.7253314 C56.0500467,39.1678234 56.7706812,39.1678234 57.2093283,38.7253314 L59.2459041,36.6709045 C59.6845512,36.2284126 59.6845512,35.5014616 59.2459041,35.0589696 C58.807257,34.6164777 58.0866225,34.6164777 57.6479754,35.0589696 Z M93.6483693,13.2820446 C93.4917097,12.8395527 93.2097222,12.5550936 92.9277348,12.3970608 C92.4890877,12.2390279 92.0504406,12.3970608 91.893781,12.6815199 L82.4315364,22.2267032 L71.935338,11.6701097 L81.3975825,2.12492633 C81.67957,1.84046722 81.8362296,1.39797528 81.67957,1.08190961 C81.5229103,0.639417661 81.2409229,0.354958554 80.8022758,0.354958554 C72.4993128,-1.41500922 64.1963499,3.57882843 61.721127,12.1126016 C61.0004925,15.0520124 61.2824799,19.4769319 61.2824799,19.4769319 L26.8800146,54.1809429 L17.8564172,63.2836343 C15.3811943,65.7805532 15.3811943,69.8894069 17.8564172,72.3863258 L22.5248756,77.1273109 C25.0000985,79.6242297 29.0732501,79.6242297 31.548473,77.1273109 L74.6925483,33.1625756 C86.2227006,35.0589696 95.9982645,24.7552286 93.6483693,13.2820446 Z M74.5672206,30.792083 C74.2852332,30.792083 73.8465861,30.792083 73.5332667,31.0765421 L29.7938846,75.1993103 C28.1959559,76.8112452 25.4074137,76.8112452 23.9661446,75.1993103 L22.3682159,73.5873753 L54.7341054,40.9377912 C55.1727525,40.4952992 55.1727525,39.7683482 54.7341054,39.3258562 C54.2954583,38.8833643 53.5748237,38.8833643 53.1361766,39.3258562 L20.7702872,71.9754404 L19.1723585,70.3635054 C17.5744298,68.7515705 17.5744298,66.0966188 19.1723585,64.4846839 C24.7181111,58.8903215 58.0866225,25.2293271 62.9117405,20.3619157 C63.193728,20.0774566 63.3503876,19.761391 63.193728,19.318899 C61.3138118,10.2162076 68.5828209,1.52440155 77.9197377,1.96689349 L69.3034554,10.6586995 C69.1467957,10.8167324 69.021468,11.1011915 69.021468,11.3856506 C69.021468,11.6701097 69.1781277,11.9861754 69.3034554,12.1126016 L81.3975825,24.3127367 C81.8362296,24.7552286 82.5568641,24.7552286 82.9955112,24.3127367 L91.6117935,15.6209306 C92.2071003,25.3557534 83.8728054,32.6884771 74.5672206,30.792083 Z" id="Shape"></path>
                </g>
            </g>
        </g>
    </g>
</svg>
